/* XPM */
static xpm_row_t const upwalk1white_xpm[] = {
"22 22 6 1",
" 	c None",
".	c #000000",
"+	c #F87858",
"@	c #FFFFFF",
"#	c #F8F8F8",
"$	c #3CBCFF",
"                      ",
"       .. ....        ",
"      .++.@@@@..      ",
"      .++.@@@@@@.     ",
"     .@..@@@@@@@@.    ",
"     .@@@@@@@@@@@.    ",
"     .@@@@@@@@@@@.    ",
"     .@@@@@@@@@@@.    ",
"     ..@@@@@@@@@@.    ",
"    .##.########.     ",
"   .###.........#.    ",
"   .##..$$$$$$$.#.    ",
"  .$.#.$$$$$$$$$.#.   ",
"  .$$............$.   ",
"   .. .$$$$$$$$$...   ",
"      .#$$$$$$##..    ",
"       .###..###.     ",
"       ......###.     ",
"     .............    ",
"    .........$$$...   ",
"     .............    ",
"                      "};
