/* XPM */
static xpm_row_t const not_selected_continue_xpm[] = {
"153 20 14 1",
" 	c None",
".	c #262700",
"+	c #3B3B3B",
"@	c #4C4C4C",
"#	c #8A8A8A",
"$	c #ADADAD",
"%	c #4F4F4F",
"&	c #666666",
"*	c #818181",
"=	c #BFBEBF",
"-	c #D3D2FF",
";	c #FFFEFF",
">	c #FCFCD0",
",	c #B8B8B8",
".                    .++@++++++.    .+++++++++++.  ++@++.    .+++++.++++++++++@++.    .+++++++++.    ++@++.    .+@++++++@++.    ++@++.++++++++++++++++.  ",
"@                    +#$$$$$$$#%.   &#$$$$$$$$$*+ +*$$$#%.  .&#$$#&&#$$$$$$$$$$$#%+. .&$$$$$$$$*@.  +*$$$#%.  .&$$$#&&#$$$*@.  +*$$$#&*$$$$$$$$$$$$$$*@. ",
"                    .&=-;;;;;>=#%+ +#=;;;;;;;;-$&+%$-;>=*%+ .#=;;=##=-;;;;;;;;;-=*+. .#=;;;;;;-$&+  %,-;-=*%+ +#-;;=##=;;-$&+  %$-;>=#$-;;;;;;;;;;;;-$&+.",
"                   +*,-;;-=-;;>=#&&#=;;------;;-$**=;;;-=#% +#-;;-$#,=--;;;;;--=$*@+ .*=-;;;;-=#&+  &=;;;-=#% +$-;;-$$-;;;,&+. %=;;;=#,;;;;---------=$&+.",
"                  .&=;;;=$#$=;;;=#$-;;-,####$-;;-$#=;;;;;=#@+#-;;-$**##$-;;;=$##*&@+  %*,;;;;=#*&+  &=;;;;;=*++$-;;-$$-;;;,&+. %=;;;=#,;;;-,#########*&+.",
"                 @*,-;;=$&@&$=--,#$;;;-$&%@@#=;;;=#=;;;;;-=#&$-;;-$&%@@*=;;;=*%%%%+.  .@$-;;-$&%@+  &=;;;;;-=#&$-;;-$$-;;;,&+. %,;;;=#,;;;-#%@@@@@@%%%%+ ",
"                 &=>;;=#*&@+&###**$;;;-$&+..*=;;;=#=;;;;;;;=#$-;;-$&+. *=;;;=*@+++.    +#-;;-$&++.  &=;;;;;;;=#$>;;-$$-;;;,&+. %,;;;=#,;;;-$&++++++++++. ",
"                 *=;;;,&%%+.+%%%@&$;;;-$%+  *=;;;=#=;;;;-;;-==;;;-$&+  &=;;;=*+.       .#-;;-$&+    &=;;;;-;;-==;;;-$$-;;;,&+. %,;;;=#,;;;;=$$###&+.     ",
"                 *=;;;,&++. .+++.@$>;;-$%+  *=;;;=#=;;;-,=;;;;;;;-$&+  &=;;;=*+.       .#-;;-$&+    &=;;;-,=;;;;;;;-$$-;;;,&+. %,;;;=#,;;;;;----=#%+     ",
"                 *=;;;,&+.       +$-;;-$&+  *=;;;=#=;;;=#$=;;;;;;-$&+  &=;;;=*+.       .#-;;-$&+    &=;;;=#$-;;;;;;-$$-;;;,&+. %,;;;=#,;;;;;----=$&+     ",
"                 *=;;;,&+.       +$-;;-$&+  *=;;;=#=;;;=#*$=;;;;;-$&+  &=;;;=*+.       .#-;;-$&+    &=;;;=#*$=;;;;;-$$-;;;,&+. %,;;;=#,;;;-=$$$$#*&+     ",
"                 &=>;;=$&+ .&*#*&%$>;;-$%+  *=;;;=#=;;;=#%&$=;;;;-$&+  &=;;;=*+.        #-;;-$&+    &=;;;=#%&$-;;;;-$$-;;;,&+  %,;;;=#,;;;-$&%%%%%%+     ",
"                 %#,-;;=$&.+#=-=$*$;;;-$%+  *=;;;=#=;;;=#@+&$=;;;-$&+  &=;;;=*+.        #-;;-$&+    &=;;;=*@+&$=;;;-$$-;;;,&+  %,;;;=#,;;;-#%++++++.     ",
"                 +@#=;;;=$*#=;;-=#$-;;>,#***$-;;-$#=;;;=#@++&$>;;-$&+  &=;;;=*+.      +&$>;;;=#&+   &=;;;=*@++&$;;;-$#=;;;=##**#=;;-=#,;;;-,#********%+. ",
"                  .%#=-;;---;;-=#**$=;;---==-;;-$##=;;;=#@. +$-;;-$&+  &=;;;=*+.     .*=-;;;;>=#%+  &=;;;=*@. +$-;;-$*#=;;;--==-;;-,#*,;;;;---=====-=$&+ ",
"                   +@*=>;;;;;-=#&&&&$-;;;;;;;;-$*%*,-;-=*@+ +#=;;=$&+  &=>;-,*+.     .#=;;;;;;-$&+  %,-;>=*@. +#-;;=$&&#=;;;;;;;;-=*&&$-;;;;;;;;;;;;-$&+.",
"                    .%#$,,,,,$#&%@++&$,,,,,,,,$#&@%#$,$#&%+ .&$,,$*&+  @#$,$#&@.     .&$,,,,,,$#&+  +#$,$#&@+ .&$,,$*&@&#,,,,,,,,$#&%%*$,,,,,,,,,,,,$#&+.",
"                     +%&&&&&&&&&@+ .+&&&&&&&&&&&%++%&&&&&@.  +&&&&&%+  +%&&&&&@.      +&&&&&&&&&%+  .%&&&&&@.  +&&&&&%++%&&&&&&&&&&&@+@&&&&&&&&&&&&&&&%+.",
"                      +++++++++++.  .+++++++++++++ .++++++.  .++++++.   +++++++       .+++++++++++   +++++++.  .++++++. +++++++++++++..+++++++++++++++++ ",
"                       .........      ..........    .....      ....      .....          ........      .....      ....    ...........    ..............   "};
