/* XPM */
static xpm_row_t const not_selected_exit_xpm[] = {
"74 18 96 2",
"  	c None",
". 	c #FFFFFF",
"+ 	c #414041",
"@ 	c #B9BAB9",
"# 	c #5F5F5F",
"$ 	c #AEAFAE",
"% 	c #272627",
"& 	c #757575",
"* 	c #E7E9E7",
"= 	c #717071",
"- 	c #737373",
"; 	c #2C2B2C",
"> 	c #424142",
", 	c #E4E6E4",
"' 	c #6D6D6D",
") 	c #6E6E6E",
"! 	c #E0E1E0",
"~ 	c #6C6B6C",
"{ 	c #919191",
"] 	c #707070",
"^ 	c #5D5D5D",
"/ 	c #252425",
"( 	c #B2B3B2",
"_ 	c #444344",
": 	c #CDCDCD",
"< 	c #8F8F8F",
"[ 	c #6A6A6A",
"} 	c #E8EAE8",
"| 	c #474647",
"1 	c #979797",
"2 	c #656565",
"3 	c #B8B8B8",
"4 	c #383638",
"5 	c #1E1E1E",
"6 	c #9A9B9A",
"7 	c #666666",
"8 	c #2E2D2E",
"9 	c #1E1D1E",
"0 	c #BFC0BF",
"a 	c #2A292A",
"b 	c #222122",
"c 	c #989998",
"d 	c #888888",
"e 	c #7A7A7A",
"f 	c #BDBEBD",
"g 	c #323132",
"h 	c #A2A2A2",
"i 	c #515051",
"j 	c #CDCECD",
"k 	c #E0E2E0",
"l 	c #1D1B1D",
"m 	c #DBDCDB",
"n 	c #5E5C5E",
"o 	c #838383",
"p 	c #3F3F3F",
"q 	c #9D9D9D",
"r 	c #3E3D3E",
"s 	c #8F8E8F",
"t 	c #848584",
"u 	c #939493",
"v 	c #7F807F",
"w 	c #A5A5A5",
"x 	c #666566",
"y 	c #1C1A1C",
"z 	c #E8E9E8",
"A 	c #777677",
"B 	c #848484",
"C 	c #A7A8A7",
"D 	c #525252",
"E 	c #CED0CE",
"F 	c #494749",
"G 	c #CCCCCC",
"H 	c #7D7E7D",
"I 	c #797979",
"J 	c #7B7B7B",
"K 	c #484848",
"L 	c #9B9B9B",
"M 	c #646364",
"N 	c #9D9E9D",
"O 	c #A3A3A3",
"P 	c #B8B9B8",
"Q 	c #1F1D1F",
"R 	c #C1C3C1",
"S 	c #8D8D8D",
"T 	c #6F6E6F",
"U 	c #E7E8E7",
"V 	c #747474",
"W 	c #C5C6C5",
"X 	c #494849",
"Y 	c #979897",
"Z 	c #404040",
"` 	c #999999",
" .	c #747374",
"..	c #C3C4C3",
"+.	c #353435",
"@.	c #E1E3E1",
"                                              . . . . . . . . . . . . . + @ . . . #           $ % . . & * = . . . - ; . . . . . . . . . . . . .     ",
"                                              . . . . . . . . . . . . . > , ' . . . )       ! ~ . . . {   ] . . . ^ / . . . . . . . . . . . . .     ",
"                                              . . . . . . . . . . . . . >   ( . . . _ :     < . . . [ }   ] . . . ^ / . . . . . . . . . . . . .     ",
"                                              . . . . . . . . . . . . . |     1 . . . 2   3 4 . . 5 6     ] . . . 7 8 . . . . . . . . . . . . .     ",
"                                              . . . 9                         0 a . . b c d . . . e       ] . . . f           g . . . !             ",
"                                              . . . 9                           h . . . . . . . i j       ] . . . f           g . . . k             ",
"                                              . . . l                           m n . . . . . . o         ] . . . f           g . . . k             ",
"                                              . . . . . . . . . . p               q . . . . . 7           ] . . . f           g . . . k             ",
"                                              . . . . . . . . . . r                 s . . . . t           ] . . . f           g . . . k             ",
"                                              . . . . . . . . . . r                 u . . . . v           ] . . . f           g . . . k             ",
"                                              . . . . . . . . . . r               w . . . . . x           ] . . . f           g . . . k             ",
"                                              . . . y , , , , , ,               z A . . . . . . B         ] . . . f           g . . . k             ",
"                                              . . . 9                           C . . . . . . . D E       ] . . . f           g . . . k             ",
"                                              . . . 9                         j F . . G H I . . . J       ] . . . f           g . . . k             ",
"                                              . . . . . . . . . . . . . K     L . . . M   N . . . % O     ] . . . f           g . . . k             ",
"                                              . . . . . . . . . . . . . >   P Q . . r R     S . . . T     ] . . . f           g . . . k             ",
"                                              . . . . . . . . . . . . . > U V . . . '       W X . . . Y   ] . . . f           g . . . k             ",
"                                              . . . . . . . . . . . . . Z @ . . . ^           ` . . .  .U ] . . . ..          +.. . . @.            "};
