/* XPM */
static xpm_row_t const not_selected_exit_xpm[] = {
"74 18 187 2",
"  	c None",
". 	c #D4D4D4",
"+ 	c #E4E4E4",
"@ 	c #EEEEEE",
"# 	c #EAEAEA",
"$ 	c #E2E2E2",
"% 	c #ECECEC",
"& 	c #F2F2F2",
"* 	c #E7E7E7",
"= 	c #EBEBEB",
"- 	c #F5F5F5",
"; 	c #D6D6D6",
"> 	c #E8E8E8",
", 	c #9E9D9E",
"' 	c #B9BAB9",
") 	c #FFFFFF",
"! 	c #5F5F5F",
"~ 	c #AEAFAE",
"{ 	c #747474",
"] 	c #FBFBFB",
"^ 	c #757575",
"/ 	c #E7E9E7",
"( 	c #717071",
"_ 	c #E0E0E0",
": 	c #737373",
"< 	c #8A8A8A",
"[ 	c #DFDFDF",
"} 	c #DCDCDC",
"| 	c #E9E9E9",
"1 	c #F1F1F1",
"2 	c #D5D5D5",
"3 	c #D2D2D2",
"4 	c #EFEFEF",
"5 	c #DADADA",
"6 	c #D3D3D3",
"7 	c #DDDDDD",
"8 	c #D1D1D1",
"9 	c #D9D9D9",
"0 	c #F6F6F6",
"a 	c #F7F7F7",
"b 	c #F9F9F9",
"c 	c #828282",
"d 	c #E4E6E4",
"e 	c #6C6C6C",
"f 	c #E6E6E6",
"g 	c #6E6E6E",
"h 	c #E0E1E0",
"i 	c #7E7D7E",
"j 	c #919191",
"k 	c #707070",
"l 	c #D7D7D7",
"m 	c #DEDEDE",
"n 	c #5D5D5D",
"o 	c #676667",
"p 	c #CECECE",
"q 	c #BABABA",
"r 	c #E1E1E1",
"s 	c #F8F8F8",
"t 	c #FDFDFD",
"u 	c #7A7A7A",
"v 	c #B2B3B2",
"w 	c #444344",
"x 	c #CDCDCD",
"y 	c #8F8F8F",
"z 	c #7B7B7B",
"A 	c #E8EAE8",
"B 	c #C8C8C8",
"C 	c #EDEDED",
"D 	c #6B6B6B",
"E 	c #DBDBDB",
"F 	c #E5E5E5",
"G 	c #C7C7C7",
"H 	c #989898",
"I 	c #9C9C9C",
"J 	c #F3F3F3",
"K 	c #6F6F6F",
"L 	c #B6B6B6",
"M 	c #8C8C8C",
"N 	c #F4F4F4",
"O 	c #727272",
"P 	c #AFB0AF",
"Q 	c #666666",
"R 	c #767676",
"S 	c #D8D8D8",
"T 	c #FAFAFA",
"U 	c #6A6A6A",
"V 	c #C2C2C2",
"W 	c #979797",
"X 	c #E3E3E3",
"Y 	c #8E8E8E",
"Z 	c #BCBDBC",
"` 	c #969696",
" .	c #959595",
"..	c #BBBCBB",
"+.	c #D2D3D2",
"@.	c #ADADAD",
"#.	c #676767",
"$.	c #A2A2A2",
"%.	c #797879",
"&.	c #CDCECD",
"*.	c #565556",
"=.	c #DCDEDC",
"-.	c #C5C5C5",
";.	c #7B7A7B",
">.	c #DBDCDB",
",.	c #5E5C5E",
"'.	c #838383",
").	c #DDDFDD",
"!.	c #CBCBCB",
"~.	c #F0F0F0",
"{.	c #A6A6A6",
"].	c #9D9D9D",
"^.	c #FEFEFE",
"/.	c #4D4D4D",
"(.	c #CCCCCC",
"_.	c #C6C6C6",
":.	c #808080",
"<.	c #8F8E8F",
"[.	c #838483",
"}.	c #737273",
"|.	c #939493",
"1.	c #7D7E7D",
"2.	c #BABBBA",
"3.	c #464546",
"4.	c #CFCFCF",
"5.	c #A5A5A5",
"6.	c #656465",
"7.	c #B7B8B7",
"8.	c #D0D0D0",
"9.	c #E0E2E0",
"0.	c #7F7F7F",
"a.	c #D8DAD8",
"b.	c #E1E3E1",
"c.	c #CDCFCD",
"d.	c #D5D7D5",
"e.	c #E9EAE9",
"f.	c #7F7E7F",
"g.	c #848484",
"h.	c #B5B5B5",
"i.	c #DEE0DE",
"j.	c #B8B8B8",
"k.	c #525252",
"l.	c #CED0CE",
"m.	c #B1B2B1",
"n.	c #CACACA",
"o.	c #DBDDDB",
"p.	c #818281",
"q.	c #868686",
"r.	c #FCFCFC",
"s.	c #8D8D8D",
"t.	c #777777",
"u.	c #CECFCE",
"v.	c #C9C9C9",
"w.	c #878787",
"x.	c #B2B2B2",
"y.	c #646364",
"z.	c #9B9C9B",
"A.	c #A4A4A4",
"B.	c #A3A3A3",
"C.	c #929292",
"D.	c #CCCECC",
"E.	c #B1B1B1",
"F.	c #B3B4B3",
"G.	c #919091",
"H.	c #9B9B9B",
"I.	c #C1C3C1",
"J.	c #6F6E6F",
"K.	c #6B6A6B",
"L.	c #CACCCA",
"M.	c #9B9A9B",
"N.	c #6D6D6D",
"O.	c #C5C6C5",
"P.	c #494849",
"Q.	c #979897",
"R.	c #C0C0C0",
"S.	c #C6C8C6",
"T.	c #C3C3C3",
"U.	c #A9A9A9",
"V.	c #BEBEBE",
"W.	c #939393",
"X.	c #ADAEAD",
"Y.	c #999999",
"Z.	c #747374",
"`.	c #E7E8E7",
" +	c #C3C4C3",
".+	c #6C6B6C",
"++	c #D1D3D1",
"                                              . + @ # @ $ % & * = - ; > , ' ) - - !           ~ { ) ] ^ / ( & _ = : < ; [ } | 1 2 3 4 $ 5 6 7 8     ",
"                                              9 = % ) ) ) ) ) 0 a b > [ c d e f 7 ) g       h i ) # ] j   k = l m n o } + @ > % p q 5 2 ; 3 8 7     ",
"                                              r & a & s ] t ) ) ) ) - 7 u   v b [ - w x     y t * b z A   k l B C n D f f m E 3 | } 2 $ 7 C # l     ",
"                                              * 0 s 2 @ * F * * * * r G H     I # @ J K   L M N C O P     K r 8 f Q R r S | m 5 % ; x * @ J > E     ",
"                                              l T > U                         V W X 1 Y Z ` a @ ]  .      K * 6 f ..          ( * S _ +.            ",
"                                              @.r F #.                          $.@ & 1 N = - & %.&.      K = 2 F Z           *.| r % =.            ",
"                                              -.J S ;.                          >.,.J 4 _ + > ) '.        K 4 $ + Z           *.% . + ).            ",
"                                              8 - = _ S [ = !.r ~.{.              ].^.% m r ~.Q           g [ E 7 Z           /.> S E ).            ",
"                                              (.1 1 F & 1 J X ~._.:.                <.b m f b [.          g % l X ..          *.r S 7 =.            ",
"                                              (.> ~.* b - 1 + r p }.                |.T E @ | 1.          K + 9 * 2.          3.2 4.f ).            ",
"                                              4.C $ + @ = = | 5 _.:               5.) - N N % 6.          K + 8 X 7.          6.8.l E 9.            ",
"                                              [ - % 0.a.b.b.9.c.d.              e.f.0 - a 1 # s g.        K | 6 } h.          c } } * i.            ",
"                                              } J & z                           j.^.# T 1 C C - k.l.      K _ (.[ m.          { 9 n.# o.            ",
"                                              4.= f <                         &.$.X C 8 p.q.) ^.r.s.      K S l S h.          t.r # > u.            ",
"                                              v.f @ m # 7 = f # @ @ 4 a w.    x.- 7 J y.  z.r.) ] A.B.    K 4.3 9 '           C.8.X 6 D.            ",
"                                              S 1 1 F = } 4 % > > 0 ~.~.E.  F.G.[ & H.I.    s.s t b J.    K $ x l '           K.S X } L.            ",
"                                              6 J @ C J 4 - J F * J 4 2 M.m : [ 9 J N.      O.P.T m b Q.  K f S l 2.          ^ R.B 8 S.            ",
"                                              T.X _.F 1 * % C # [ } U.V.W.X.t | ] n           Y.) > @ Z.`.K = p l  +          .+m T.p ++            "};
