/* XPM */
static xpm_row_t const not_selected_start_xpm[] = {
"100 20 257 2",
"  	c None",
". 	c #000000",
"+ 	c #FCFCD0",
"@ 	c #000000",
"# 	c #747490",
"$ 	c #BE0000",
"% 	c #33FF33",
"& 	c #310EC8",
"* 	c #000000",
"= 	c #000000",
"- 	c #000000",
"; 	c #000000",
"> 	c #000000",
", 	c #000000",
"' 	c #000000",
") 	c #000000",
"! 	c #000000",
"~ 	c #000000",
"{ 	c #000000",
"] 	c #000000",
"^ 	c #000000",
"/ 	c #000000",
"( 	c #000000",
"_ 	c #000000",
": 	c #000000",
"< 	c #000000",
"[ 	c #000000",
"} 	c #000000",
"| 	c #000000",
"1 	c #000000",
"2 	c #000000",
"3 	c #000000",
"4 	c #000000",
"5 	c #000000",
"6 	c #000000",
"7 	c #000000",
"8 	c #000000",
"9 	c #000000",
"0 	c #000000",
"a 	c #000000",
"b 	c #000000",
"c 	c #000000",
"d 	c #000000",
"e 	c #000000",
"f 	c #000000",
"g 	c #000000",
"h 	c #000000",
"i 	c #000000",
"j 	c #000000",
"k 	c #000000",
"l 	c #000000",
"m 	c #000000",
"n 	c #000000",
"o 	c #000000",
"p 	c #000000",
"q 	c #000000",
"r 	c #000000",
"s 	c #000000",
"t 	c #000000",
"u 	c #000000",
"v 	c #000000",
"w 	c #000000",
"x 	c #000000",
"y 	c #000000",
"z 	c #000000",
"A 	c #000000",
"B 	c #000000",
"C 	c #000000",
"D 	c #000000",
"E 	c #000000",
"F 	c #000000",
"G 	c #000000",
"H 	c #000000",
"I 	c #000000",
"J 	c #000000",
"K 	c #000000",
"L 	c #000000",
"M 	c #000000",
"N 	c #000000",
"O 	c #000000",
"P 	c #000000",
"Q 	c #000000",
"R 	c #000000",
"S 	c #000000",
"T 	c #000000",
"U 	c #000000",
"V 	c #000000",
"W 	c #000000",
"X 	c #000000",
"Y 	c #000000",
"Z 	c #000000",
"` 	c #000000",
" .	c #000000",
"..	c #000000",
"+.	c #000000",
"@.	c #000000",
"#.	c #000000",
"$.	c #000000",
"%.	c #000000",
"&.	c #000000",
"*.	c #000000",
"=.	c #000000",
"-.	c #000000",
";.	c #000000",
">.	c #000000",
",.	c #000000",
"'.	c #000000",
").	c #000000",
"!.	c #000000",
"~.	c #000000",
"{.	c #000000",
"].	c #000000",
"^.	c #000000",
"/.	c #000000",
"(.	c #000000",
"_.	c #000000",
":.	c #000000",
"<.	c #000000",
"[.	c #000000",
"}.	c #000000",
"|.	c #000000",
"1.	c #000000",
"2.	c #000000",
"3.	c #000000",
"4.	c #000000",
"5.	c #000000",
"6.	c #000000",
"7.	c #000000",
"8.	c #000000",
"9.	c #666666",
"0.	c #002A88",
"a.	c #1412A7",
"b.	c #3B00A4",
"c.	c #5C007E",
"d.	c #6E0040",
"e.	c #6C0600",
"f.	c #561D00",
"g.	c #333500",
"h.	c #0B4800",
"i.	c #005200",
"j.	c #004F08",
"k.	c #00404D",
"l.	c #000000",
"m.	c #000000",
"n.	c #000000",
"o.	c #ADADAD",
"p.	c #155FD9",
"q.	c #4240FF",
"r.	c #7527FE",
"s.	c #A01ACC",
"t.	c #B71E7B",
"u.	c #B53120",
"v.	c #994E00",
"w.	c #6B6D00",
"x.	c #388700",
"y.	c #0C9300",
"z.	c #008F32",
"A.	c #007C8D",
"B.	c #000000",
"C.	c #000000",
"D.	c #000000",
"E.	c #FFFEFF",
"F.	c #64B0FF",
"G.	c #9290FF",
"H.	c #C676FF",
"I.	c #F36AFF",
"J.	c #FE6ECC",
"K.	c #FE8170",
"L.	c #EA9E22",
"M.	c #BCBE00",
"N.	c #88D800",
"O.	c #5CE430",
"P.	c #45E082",
"Q.	c #48CDDE",
"R.	c #4F4F4F",
"S.	c #000000",
"T.	c #000000",
"U.	c #FFFEFF",
"V.	c #C0DFFF",
"W.	c #D3D2FF",
"X.	c #E8C8FF",
"Y.	c #FBC2FF",
"Z.	c #FEC4EA",
"`.	c #FECCC5",
" +	c #F7D8A5",
".+	c #E4E594",
"++	c #CFEF96",
"@+	c #BDF4AB",
"#+	c #B3F3CC",
"$+	c #B5EBF2",
"%+	c #B8B8B8",
"&+	c #000000",
"*+	c #000000",
"=+	c #4C4C4C",
"-+	c #001F66",
";+	c #0F0D7D",
">+	c #2C007B",
",+	c #45005E",
"'+	c #520030",
")+	c #510400",
"!+	c #401500",
"~+	c #262700",
"{+	c #083600",
"]+	c #003D00",
"^+	c #003B06",
"/+	c #003039",
"(+	c #000000",
"_+	c #000000",
":+	c #000000",
"<+	c #818181",
"[+	c #0F47A2",
"}+	c #3130BF",
"|+	c #571DBE",
"1+	c #781399",
"2+	c #89165C",
"3+	c #872418",
"4+	c #723A00",
"5+	c #505100",
"6+	c #2A6500",
"7+	c #096E00",
"8+	c #006B25",
"9+	c #005D69",
"0+	c #000000",
"a+	c #000000",
"b+	c #000000",
"c+	c #BFBEBF",
"d+	c #4B84BF",
"e+	c #6D6CBF",
"f+	c #9458BF",
"g+	c #B64FBF",
"h+	c #BE5299",
"i+	c #BE6054",
"j+	c #AF7619",
"k+	c #8D8E00",
"l+	c #66A200",
"m+	c #45AB24",
"n+	c #33A861",
"o+	c #3699A6",
"p+	c #3B3B3B",
"q+	c #000000",
"r+	c #000000",
"s+	c #BFBEBF",
"t+	c #90A7BF",
"u+	c #9E9DBF",
"v+	c #AE96BF",
"w+	c #BC91BF",
"x+	c #BE93AF",
"y+	c #BE9993",
"z+	c #B9A27B",
"A+	c #ABAB6F",
"B+	c #9BB370",
"C+	c #8DB780",
"D+	c #86B699",
"E+	c #87B0B5",
"F+	c #8A8A8A",
"G+	c #000000",
"H+	c #000000",
"                                      ~+p+p+p+p+p+p+p+p+p+~+        p+p+=+p+p+p+p+p+p+p+p+p+p+p+            ~+p+p+=+p+=+p+p+~+        ~+p+p+p+p+p+p+p+p+p+p+p+p+p+~+    p+p+=+p+p+p+p+p+p+p+p+p+p+p+    ",
"                                      R.F+o.o.o.o.o.o.o.<+p+~+    p+<+o.o.o.o.o.o.o.o.o.o.o.o.9.p+~+        p+<+o.o.o.o.o.F+R.~+    ~+9.F+o.o.o.o.o.o.o.o.o.o.o.<+=+  p+<+o.o.o.o.o.o.o.o.o.o.o.o.9.p+~+",
"                                    p+F+c+E.E.E.E.E.E.W.o.9.p+~+  =+o.W.E.E.E.E.E.E.E.E.E.E.c+F+R.p+      ~+9.%+W.E.E.E.W.c+<+R.p+  ~+F+c+E.E.E.E.E.E.E.E.E.E.W.%+<+p+R.o.W.E.E.E.E.E.E.E.E.E.E.c+F+R.p+",
"                                  9.F+c+E.E.W.W.W.W.E.E.W.%+<+R.  =+F+c+W.W.+ E.E.E.E.W.W.W.c+F+9.p+    p+<+o.W.E.E.W.E.E.W.c+F+R.  p+F+W.E.E.E.W.W.W.W.W.W.E.E.W.%+<+9.o.c+W.W.E.E.E.E.E.W.W.W.c+F+9.p+",
"                                  F+c+E.E.E.c+F+F+o.W.E.E.W.o.9.p+p+9.F+F+F+c+E.E.E.W.o.F+F+F+<+9.p+    9.c+W.E.E.c+o.c+E.E.E.c+F+=+p+F+W.E.E.E.%+F+F+F+F+o.W.E.E.W.%+<+<+F+F+F+c+E.E.E.W.o.F+F+F+9.R.p+",
"                                  F+W.E.E.W.o.9.p+9.%+c+W.c+o.9.p+~+p+=+=+9.o.E.E.E.W.F+9.R.R.R.=+p+=+<+o.W.E.E.c+o.<+o.c+E.E.W.c+F+9.o.W.E.E.W.o.9.R.    <+c+E.E.E.c+<+R.R.p+9.%+E.E.E.W.F+R.R.R.R.=+p+",
"                                  F+W.E.E.W.o.9.p+R.<+F+o.F+<+9.=+~+~+p+  =+o.E.E.E.W.F+R.p+p+p+~+  9.c+W.E.E.c+o.<+9.9.F+c+E.E.E.c+F+o.W.E.E.W.o.9.    ~+<+c+E.E.E.c+<+=+p+  =+o.E.E.E.W.F+R.p+p+p+p+~+",
"                                  o.c+E.E.E.c+o.o.o.o.o.o.o.F+9.p+~+      p+o.E.E.E.W.F+R.p+        <+c+E.E.E.c+9.R.=+~+p+o.E.E.E.W.F+o.W.E.E.W.o.R.~+  <+o.W.E.E.E.c+<+p+~+  p+o.E.E.E.W.F+R.p+        ",
"                                  c+o.c++ E.E.W.W.W.W.W.W.W.o.9.p+~+      p+o.E.E.E.W.F+R.p+        <+c+E.E.E.c+<+=+p+  =+o.E.E.E.W.F+o.W.E.E.W.o.9.p+9.%+W.E.E.E.E.c+<+p+~+  p+o.E.E.E.W.F+R.p+        ",
"                                  c+F+F+c+W.W.W.W.W.W.W.E.E.c+o.<+=+~+    p+o.E.E.E.W.F+R.p+        <+c+E.E.E.c+o.F+F+F+F+c+E.E.E.c+F+o.W.E.E.E.c+o.F+o.W.E.E.W.W.W.o.<+p+~+  p+o.E.E.E.W.F+R.p+        ",
"                                o.F+9.9.F+o.o.o.o.o.o.%+W.E.E.W.o.9.p+~+  p+o.E.E.E.W.F+R.p+        <+c+E.E.E.E.W.W.W.W.W.E.E.E.E.c+F+o.W.E.E.E.E.W.W.W.E.E.c+o.o.o.F+9.=+~+  p+o.E.E.E.W.F+R.p+        ",
"                                9.9.<+F+F+F+<+9.9.R.R.<+c+E.E.E.c+<+p+~+  p+o.E.E.E.W.F+R.p+        <+c+E.E.E.E.W.W.W.W.W.E.E.E.E.c+F+o.W.E.E.E.E.E.E.E.E.E.c+o.<+9.9.R.p+~+  p+o.E.E.E.W.F+R.p+        ",
"                                  <+c+W.W.c+F+R.p+~+  9.c+E.E.E.c+<+p+~+  p+o.E.E.E.W.F+R.p+        <+c+E.E.E.c+%+o.o.o.%+c+E.E.E.c+F+o.W.E.E.E.c+c++ E.E.E.E.c+o.9.=+p+~+    p+o.E.E.E.W.F+R.p+        ",
"                                  F+c+E.E.E.c+F+<+<+<+F+W.E.E.W.%+<+p+~+  p+o.E.E.E.W.F+R.p+        <+c+E.E.E.c+<+9.9.R.<+c+E.E.E.c+F+o.W.E.E.W.o.F+c+E.E.E.E.E.c+F+9.p+~+    p+o.E.E.E.W.F+R.p+        ",
"                                ~+9.o.c+E.E.+ W.W.c+c+W.E.E.W.o.F+9.=+~+  p+o.E.E.E.W.F+R.p+        <+c+E.E.E.c+9.p+p+~+R.%+E.E.E.W.F+o.+ E.E.W.o.<+F+c+W.E.E.E.E.c+o.9.p+~+  p+o.E.E.E.W.F+R.p+        ",
"                                  p+9.o.c+E.E.E.E.E.E.E.E.W.%+<+9.9.=+~+  p+o.W.E.E.c+F+R.p+        9.c+E.E.W.%+9.p+~+  =+o.W.E.E.c+F+o.W.E.E.c+o.9.9.F+c+E.E.E.E.W.%+<+p+~+  p+o.W.E.E.c+F+R.p+        ",
"                                    p+9.o.%+%+%+%+%+%+%+%+o.F+9.R.p+p+    p+<+o.%+%+o.<+R.p+        R.F+%+%+o.F+9.=+~+  p+<+o.%+%+o.<+F+o.%+%+o.<+9.=+9.F+%+%+%+%+o.F+9.=+~+  p+<+o.%+%+o.<+R.p+        ",
"                                      p+9.9.9.9.9.9.9.9.9.9.9.9.=+~+        =+9.9.9.9.9.R.p+        p+R.9.9.9.9.9.p+~+  ~+=+9.9.9.9.9.9.9.9.9.9.9.R.p+p+R.9.9.9.9.9.9.9.=+~+  ~+=+9.9.9.9.9.R.p+        ",
"                                      ~+p+p+p+p+p+p+p+p+p+p+p+p+p+          ~+p+p+p+p+p+p+~+        ~+p+p+p+p+p+p+p+      ~+p+p+p+p+p+p+p+p+p+p+p+p+~+  p+p+p+p+p+p+p+p+p+      ~+p+p+p+p+p+p+~+        ",
"                                          ~+~+~+~+~+~+~+~+~+~+                  ~+~+~+~+                ~+~+~+~+              ~+~+~+~+~+~+~+~+~+~+        ~+~+~+~+~+~+~+            ~+~+~+~+            "};
