/* XPM */
static xpm_row_t const selected_exit_xpm[] = {
"74 18 217 2",
"  	c None",
". 	c #262700",
"+ 	c #3B3B3B",
"@ 	c #4C4C4C",
"# 	c #EDEDED",
"$ 	c #FFFFFF",
"% 	c #F2F2F2",
"& 	c #E9E9E9",
"* 	c #E3E3E3",
"= 	c #E8E8E8",
"- 	c #F9F9F9",
"; 	c #F7F7F7",
"> 	c #F0F0F0",
", 	c #F1F1F1",
"' 	c #F3F3F3",
") 	c #EAEAEA",
"! 	c #CACACA",
"~ 	c #838383",
"{ 	c #B5B6B5",
"] 	c #BEBEBE",
"^ 	c #EBEBEB",
"/ 	c #7A7B7A",
"( 	c #B3B4B3",
"_ 	c #7D7E7D",
": 	c #EFEFEF",
"< 	c #757575",
"[ 	c #E7E9E7",
"} 	c #898989",
"| 	c #D9D9D9",
"1 	c #F5F5F5",
"2 	c #A4A5A4",
"3 	c #929392",
"4 	c #E6E6E6",
"5 	c #ECECEC",
"6 	c #E1E1E1",
"7 	c #E5E5E5",
"8 	c #E0E0E0",
"9 	c #DCDCDC",
"0 	c #DEDEDE",
"a 	c #D4D4D4",
"b 	c #8A8A8A",
"c 	c #ADADAD",
"d 	c #818181",
"e 	c #C9C9C9",
"f 	c #D6D6D6",
"g 	c #DADADA",
"h 	c #E7E7E7",
"i 	c #D1D1D1",
"j 	c #C4C4C4",
"k 	c #808080",
"l 	c #A0A1A0",
"m 	c #D7D8D7",
"n 	c #D7D7D7",
"o 	c #CCCCCC",
"p 	c #AAABAA",
"q 	c #E0E1E0",
"r 	c #909090",
"s 	c #DADBDA",
"t 	c #FEFEFE",
"u 	c #919191",
"v 	c #878887",
"w 	c #DBDBDB",
"x 	c #CDCDCD",
"y 	c #949594",
"z 	c #CECECE",
"A 	c #DFDFDF",
"B 	c #C8C8C8",
"C 	c #666666",
"D 	c #BFBEBF",
"E 	c #FFFEFF",
"F 	c #D3D2FF",
"G 	c #B8B8B8",
"H 	c #4F4F4F",
"I 	c #E4E4E4",
"J 	c #D5D5D5",
"K 	c #C0C0C0",
"L 	c #CFCFCF",
"M 	c #AAAAAA",
"N 	c #BFC0BF",
"O 	c #E6E7E6",
"P 	c #E5E6E5",
"Q 	c #BABABA",
"R 	c #A8A9A8",
"S 	c #D3D3D3",
"T 	c #E2E3E2",
"U 	c #E4E5E4",
"V 	c #F0F1F0",
"W 	c #6F6F6F",
"X 	c #E8EAE8",
"Y 	c #939393",
"Z 	c #D4D5D4",
"` 	c #D0D0D0",
" .	c #B9BBB9",
"..	c #8A8B8A",
"+.	c #C7C7C7",
"@.	c #E2E2E2",
"#.	c #F6F6F6",
"$.	c #EEEEEE",
"%.	c #9F9F9F",
"&.	c #B7B8B7",
"*.	c #E8E9E8",
"=.	c #B0B1B0",
"-.	c #ADAEAD",
";.	c #C4C5C4",
">.	c #A5A6A5",
",.	c #7F807F",
"'.	c #9A9B9A",
").	c #E9EAE9",
"!.	c #989998",
"~.	c #868786",
"{.	c #C6C7C6",
"].	c #636363",
"^.	c #CCCDCC",
"/.	c #B1B2B1",
"(.	c #D9DAD9",
"_.	c #B4B6B4",
":.	c #B1B3B1",
"<.	c #E0E2E0",
"[.	c #EAEBEA",
"}.	c #7E7E7E",
"|.	c #949494",
"1.	c #EDEEED",
"2.	c #C3C4C3",
"3.	c #747574",
"4.	c #DDDDDD",
"5.	c #DBDCDB",
"6.	c #A3A5A3",
"7.	c #E7E8E7",
"8.	c #E3E4E3",
"9.	c #D8D8D8",
"0.	c #797979",
"a.	c #CDCECD",
"b.	c #8B8C8B",
"c.	c #BDBEBD",
"d.	c #8C8D8C",
"e.	c #DDDFDD",
"f.	c #666766",
"g.	c #DDDEDD",
"h.	c #A6A7A6",
"i.	c #898A89",
"j.	c #8D8D8D",
"k.	c #999A99",
"l.	c #D7D9D7",
"m.	c #A8A8A8",
"n.	c #868686",
"o.	c #D5D7D5",
"p.	c #979797",
"q.	c #9E9E9E",
"r.	c #9A9C9A",
"s.	c #919291",
"t.	c #D0D1D0",
"u.	c #D8DAD8",
"v.	c #878787",
"w.	c #9B9C9B",
"x.	c #D6D7D6",
"y.	c #9C9E9C",
"z.	c #9EA09E",
"A.	c #DEDFDE",
"B.	c #D1D3D1",
"C.	c #F4F4F4",
"D.	c #999999",
"E.	c #969796",
"F.	c #DADCDA",
"G.	c #9B9B9B",
"H.	c #C6C8C6",
"I.	c #B7B9B7",
"J.	c #C8C9C8",
"K.	c #BCBDBC",
"L.	c #888888",
"M.	c #AEAFAE",
"N.	c #FAFBFA",
"O.	c #A2A3A2",
"P.	c #979897",
"Q.	c #909290",
"R.	c #C2C4C2",
"S.	c #F5F6F5",
"T.	c #858685",
"U.	c #CCCECC",
"V.	c #8E8F8E",
"W.	c #A0A0A0",
"X.	c #DFE1DF",
"Y.	c #A3A4A3",
"Z.	c #F2F3F2",
"`.	c #C7C8C7",
" +	c #BCBEBC",
".+	c #DEE0DE",
"++	c #D2D3D2",
"@+	c #A1A2A1",
"#+	c #B4B4B4",
"$+	c #CACBCA",
"%+	c #F3F4F3",
"&+	c #DFE0DF",
"*+	c #B1B1B1",
"=+	c #FAFAFA",
"-+	c #B6B7B6",
";+	c #CBCBCB",
">+	c #D2D2D2",
",+	c #8C8E8C",
"'+	c #CACCCA",
")+	c #C1C3C1",
"!+	c #C5C5C5",
"~+	c #BFBFBF",
"{+	c #9D9E9D",
"]+	c #B9BAB9",
"^+	c #C4C6C4",
"/+	c #B0B0B0",
"(+	c #A7A8A7",
"_+	c #6D6D6D",
":+	c #848584",
"<+	c #858585",
"[+	c #C0C2C0",
"}+	c #C3C3C3",
"|+	c #5D5D5D",
"1+	c #959595",
"2+	c #7B7A7B",
"3+	c #9C9D9C",
"4+	c #E1E3E1",
"    . + + @ +                                 # $ % & * = - ; > , ' ) ! ~ { % ] ^ /           ( _ : - < [ } : | 1 2 3 ^ 4 , 5 6 1 > 7 8 9 - 0 a     ",
"    @ b c c c d @                             ' e f g | h 5 8 i 7 | f j k [ l m n o p       q r 5 s t u   v w x a y 3 z e ) 7 A f n , : h > B h     ",
"    C D E E F G d H +                         1 0 | i & 4 # I h J K x L M   N O P Q R S     ( T U V W X   Y 8 Z `  ...6 B J B +.* 6 8 : % : w @.    ",
"    d D E E E F G c c d @                     #.7 J 7 @.4 $.: * w n M j %.    &.*.I =.-.  ;.>.f @.,.'.    r 4 ).| !.~.8 9 A h {.@.S $., | 9 e 9     ",
"    C D E E E E E E F D d H + . .             , 4 J ].                        ^./.@.(._.:.{ <.[.U }.      |., 1.h 2.          3.) 4.^ 5.            ",
"    C D E E E E E E E F G c c d H             1 ' : 6.                          2.7.n A q 8.9.n 0.a.      b., 4 9.c.          d.w x # e.            ",
"    C D E E E E E E E E E E F D d @           & * 9.f.                          g.h.f e 9.7.= (.i.        j.^ 0 n c.          k.= 6 4 l.            ",
"    C D E E E E E E E E E E E F D c c         % 5 6 - & $.@.7 A @.r               =.1.i 7.8 A m.          n.7 = I c.          Y g.w g o.            ",
"    C D E E E E E E E E E E E E E F F         % # A J ) h f h 7 +.p.                q.4 @.9.8 r.          M ).0 * c.          s.t.J w u.            ",
"    C D E E E E E E E E E E E E F F F         # 4.# I & ^ ^ 7 - B v.                w.x.z w 0 y.          j.# & ) c.          z.A.6 S B.            ",
"    C D E E E E E E E E E E E F G c c         ^ 9.$.& & C.w I J 6 D.              p X # I f L E.          i.# ^ h c.          k.5.g n F.            ",
"    C D E E E E E E E E E F F D b C C         % A h G.H.I.H.J.K.:.L.            7.M.^ N.g.z n g.!.        b % # I c.          O.w S o u.            ",
"    C D E E E E E E E F G c c b C H @         1 x @.P.Q.                        R.S.o * X 5.{.) T.U.      V.S.$.6 K.          W.` z I X.            ",
"    C D E E E E E E F D d C C C C             : I | b.                        Z Y.Z.V l.`. +.+A ++Y.      d.- > * K.          @+n x h <.            ",
"    C D E E E F G c c b C H + + +             6 6 , ) 5 A * i A 9 #+g P i.    $+%+&+6 '.  @+U S t.3 *+    v =+a o c.          -+x ;+g e.            ",
"    C D E E F G d C C C C @ .                 * = ) 4 * 6 I >+I 0 @.B f ,+  '+h.7 a.< )+    j.!+~+6 {+    r > K g ]+          ^+g./+6 .+            ",
"      b c G c b C @ + + + +                   % , $.h S I 4.g 6 8 9.n J h.O (+w 9 4 _+      ;.:+s ) 9 Y.  <+: >+z G           R.4.W.J l.            ",
"      H C C C C C @ .                         - ' > # J 0 w 6 = A J @.n ..[+4 }+4.|+          1+n $.8 2+^.3+5 g h N           P.j ! A 4+            "};
