/* XPM */
static xpm_row_t const selected_exit_xpm[] = {
"74 18 147 2",
"  	c None",
". 	c #262700",
"+ 	c #3B3B3B",
"@ 	c #4C4C4C",
"# 	c #FFFFFF",
"$ 	c #414041",
"% 	c #B9BAB9",
"& 	c #FDFDFD",
"* 	c #FEFEFE",
"= 	c #808180",
"- 	c #B3B4B3",
"; 	c #7D7E7D",
"> 	c #FAFAFA",
", 	c #757575",
"' 	c #E7E9E7",
") 	c #898989",
"! 	c #F8F8F8",
"~ 	c #FBFBFB",
"{ 	c #A4A5A4",
"] 	c #929392",
"^ 	c #8A8A8A",
"/ 	c #ADADAD",
"( 	c #818181",
"_ 	c #424142",
": 	c #E4E6E4",
"< 	c #A3A4A3",
"[ 	c #F5F6F5",
"} 	c #F4F5F4",
"| 	c #AAABAA",
"1 	c #E0E1E0",
"2 	c #939493",
"3 	c #F9F9F9",
"4 	c #F7F8F7",
"5 	c #919191",
"6 	c #878887",
"7 	c #FCFCFC",
"8 	c #949594",
"9 	c #666666",
"0 	c #BFBEBF",
"a 	c #FFFEFF",
"b 	c #D3D2FF",
"c 	c #B8B8B8",
"d 	c #4F4F4F",
"e 	c #C0C1C0",
"f 	c #F0F1F0",
"g 	c #FAFBFA",
"h 	c #F3F4F3",
"i 	c #D3D3D3",
"j 	c #B6B7B6",
"k 	c #F1F2F1",
"l 	c #FBFCFB",
"m 	c #F9FAF9",
"n 	c #6F6F6F",
"o 	c #E8EAE8",
"p 	c #959595",
"q 	c #FDFEFD",
"r 	c #BBBDBB",
"s 	c #8F908F",
"t 	c #474647",
"u 	c #B8B9B8",
"v 	c #F2F3F2",
"w 	c #B7B8B7",
"x 	c #C6C7C6",
"y 	c #B0B2B0",
"z 	c #838483",
"A 	c #9A9B9A",
"B 	c #FEFFFE",
"C 	c #989998",
"D 	c #888988",
"E 	c #595959",
"F 	c #CCCDCC",
"G 	c #B5B6B5",
"H 	c #F4F4F4",
"I 	c #C3C5C3",
"J 	c #C1C3C1",
"K 	c #F1F3F1",
"L 	c #7E7E7E",
"M 	c #C3C4C3",
"N 	c #767776",
"O 	c #959795",
"P 	c #F8F9F8",
"Q 	c #F6F7F6",
"R 	c #7B7B7B",
"S 	c #CDCECD",
"T 	c #8C8D8C",
"U 	c #BDBEBD",
"V 	c #8D8E8D",
"W 	c #F7F7F7",
"X 	c #E0E2E0",
"Y 	c #666766",
"Z 	c #DDDEDD",
"` 	c #FCFDFC",
" .	c #8E8F8E",
"..	c #F5F5F5",
"+.	c #505050",
"@.	c #B0B1B0",
"#.	c #B4B4B4",
"$.	c #898A89",
"%.	c #717171",
"&.	c #A4A4A4",
"*.	c #A1A3A1",
"=.	c #969796",
"-.	c #686868",
";.	c #9E9F9E",
">.	c #ACAEAC",
",.	c #A0A2A0",
"'.	c #6D6E6D",
").	c #F4F6F4",
"!.	c #9C9D9C",
"~.	c #CACCCA",
"{.	c #B8BAB8",
"].	c #C8CAC8",
"^.	c #C8C9C8",
"/.	c #BCBDBC",
"(.	c #B1B3B1",
"_.	c #5A5B5A",
":.	c #E7E8E7",
"<.	c #B1B2B1",
"[.	c #A1A2A1",
"}.	c #949694",
"|.	c #C2C4C2",
"1.	c #F2F2F2",
"2.	c #F2F4F2",
"3.	c #D1D3D1",
"4.	c #A5A6A5",
"5.	c #D4D5D4",
"6.	c #CBCCCB",
"7.	c #C9CBC9",
"8.	c #CACBCA",
"9.	c #A6A7A6",
"0.	c #A0A1A0",
"a.	c #B4B4B4",
"b.	c #BABBBA",
"c.	c #909290",
"d.	c #777777",
"e.	c #8F8F8F",
"f.	c #A8A9A8",
"g.	c #909090",
"h.	c #ADAEAD",
"i.	c #E6E7E6",
"j.	c #6D6D6D",
"k.	c #858585",
"l.	c #C0C2C0",
"m.	c #5D5D5D",
"n.	c #999999",
"o.	c #848384",
"p.	c #E1E3E1",
"    . + + @ +                                 # # # # # # # # # # # # # $ % & # * =           - ; > # , ' ) ! ~ # { ] & # # # # # # # # # # # #     ",
"    @ ^ / / / ( @                             # # # # # # # # # # # # # _ : < [ * } |       1 2 3 4 * 5   6 7 & ~ 8 2 & # # # # # # # # # # # #     ",
"    9 0 a a b c ( d +                         # # # # # # # # # # # # # _   e f g h % i     j k l m n o   p & q m r s # # # # # # # # # # # # #     ",
"    ( 0 a a a b c / / ( @                     # # # # # # # # # # # # # t     u v 3 f w   x y ! & z A     p & B 3 C D # # # # q q # # # # # # #     ",
"    9 0 a a a a a a b 0 ( d + . .             # # # E                         F G H v I J % K m [ L       p & B & M           N ! # # 1             ",
"    9 0 a a a a a a a b c / / ( d             # # # O                           M f 7 P Q m ~ H R S       T & * 7 U           V W # # X             ",
"    9 0 a a a a a a a a a a b 0 ( @           # # * Y                           Z | ! # # ` > Q  .        5 & # # U           A ..# # X             ",
"    9 0 a a a a a a a a a a a b 0 / /         # # # # # # # # # * +.              @.[ > B 7 7 #.          $.& # # U           p [ # # X             ",
"    9 0 a a a a a a a a a a a a a b b         # # # # # # # # # * %.                &.3 ~ & & *.          #.` # # U           =.Q # # X             ",
"    9 0 a a a a a a a a a a a a b b b         # # # # # # # # # * -.                ;.q * # & >.          5 & # # U           ,.[ # # X             ",
"    9 0 a a a a a a a a a a a b c / /         # # # # # # # # # * '.              j ).` * # * !.          T & # # U           A Q # # X             ",
"    9 0 a a a a a a a a a b b 0 ^ 9 9         # # * #.~.{.].^./.(._.            :.<.~ q q # q P A         ^ * # # U           < Q # # X             ",
"    9 0 a a a a a a a b c / / ^ 9 d @         # # ! [.}.                        |.4 ~ 1.2.4 l & V 3.       .q # # U           4.W # # X             ",
"    9 0 a a a a a a b 0 ( 9 9 9 9             # # > C                         5.< l Q X 6.7.K & 4 |       T & # # U           < > # # X             ",
"    9 0 a a a b c / / ^ 9 d + + +             # # # # # # # # & ~ 7 * [ V     8.h g H ;.  9.` 3 Q 0.a.    6 * # # U           b.7 # # X             ",
"    9 0 a a b c ( 9 9 9 9 @ .                 # # # # # # # # # # # # ~ c.  ~.9.~ m d.J     e.m g 3 f.    g.& # # U           7.g # # X             ",
"      ^ / c / ^ 9 @ + + + +                   # # # # # # # # # # # # W h.i.h.& # # j.      x V P # * h.  k.& # # U           I ~ # # X             ",
"      d 9 9 9 9 9 @ .                         # # # # # # # # # # # # ! =.l.# # # m.          n.* # # o.:.!.7 # # M           !.* # # p.            "};
