/* XPM */
static xpm_row_t const  moon_xpm[] = {
/* columns rows colors chars-per-pixel */
"60 60 148 2 ",
"   c #060301",
".  c #0A0602",
"X  c #0D0A06",
"o  c #0E0C08",
"O  c #100B07",
"+  c #120E09",
"@  c #15110D",
"#  c #19140E",
"$  c #171310",
"%  c #1A1611",
"&  c #1E1914",
"*  c #1E1A18",
"=  c #221C15",
"-  c #231E19",
";  c #281F18",
":  c #26211D",
">  c #2B241D",
",  c #2F281E",
"<  c #32281F",
"1  c #262421",
"2  c #2B2522",
"3  c #2D2925",
"4  c #2E2B29",
"5  c #332B23",
"6  c #382F26",
"7  c #322E2B",
"8  c #382F28",
"9  c #343027",
"0  c #35312B",
"q  c #3A332D",
"w  c #353332",
"e  c #3B3633",
"r  c #3C3935",
"t  c #3D3B3B",
"y  c #40372E",
"u  c #40392F",
"i  c #423B34",
"p  c #433E3C",
"a  c #44413E",
"s  c #4B433C",
"d  c #413F40",
"f  c #454342",
"g  c #4A4544",
"h  c #4D4945",
"j  c #474548",
"k  c #4E4A4A",
"l  c #514945",
"z  c #504748",
"x  c #524D4C",
"c  c #55514E",
"v  c #59544D",
"b  c #554E51",
"n  c #555353",
"m  c #5A5554",
"M  c #5E5955",
"N  c #575659",
"B  c #5A5759",
"V  c #5D5A5B",
"C  c #615C55",
"Z  c #625D5D",
"A  c #64615F",
"S  c #68635F",
"D  c #5E5C61",
"F  c #625F62",
"G  c #656263",
"H  c #696464",
"J  c #6D6966",
"K  c #656469",
"L  c #6A6769",
"P  c #6D6A6C",
"I  c #726D6D",
"U  c #75716E",
"Y  c #6E6C70",
"T  c #736E71",
"R  c #757274",
"E  c #7A7575",
"W  c #7C7875",
"Q  c #767479",
"!  c #7C7679",
"~  c #7D7A7B",
"^  c #827C7D",
"/  c #847E80",
"(  c #887F82",
")  c #868182",
"_  c #8A8485",
"`  c #8E8A86",
"'  c #8C8689",
"]  c #8E898B",
"[  c #928C8D",
"{  c #94918E",
"}  c #938D91",
"|  c #969193",
" . c #999395",
".. c #9D9A97",
"X. c #9C9699",
"o. c #9E9A9B",
"O. c #A29C9D",
"+. c #A4A19E",
"@. c #A59EA1",
"#. c #A89FA2",
"$. c #A6A2A3",
"%. c #AAA4A5",
"&. c #AFAAA7",
"*. c #ACA6A8",
"=. c #ADAAAA",
"-. c #B3ADAD",
";. c #B4B0AF",
":. c #B5AEB1",
">. c #B6B1B2",
",. c #BAB4B4",
"<. c #BCB8B7",
"1. c #B7B5B8",
"2. c #BCB6B9",
"3. c #BDB9BA",
"4. c #C2BCBC",
"5. c #C4C1BD",
"6. c #BFBDC0",
"7. c #C4BEC1",
"8. c #C6C1C1",
"9. c #CAC4C5",
"0. c #CBC9C6",
"q. c #CCC7C9",
"w. c #CECACB",
"e. c #D1CDCE",
"r. c #D2D1CD",
"t. c #D1CFD0",
"y. c #D4D3D3",
"u. c #D8D7D4",
"i. c #DCDBD6",
"p. c #D9D7D8",
"a. c #DDDCDC",
"s. c #E0DFDD",
"d. c #DFE0DB",
"f. c #E4E3E3",
"g. c #E8E5E6",
"h. c #EAE9E6",
"j. c #EDECEB",
"k. c #F0EFED",
"l. c #EEF0EF",
"z. c #F1F0EE",
"x. c none",
"c. c none",
"v. c #F8F6F7",
"b. c none",
"n. c none",
"m. c none",
"M. c none",
"N. c none",
/* pixels */
"N.N.N.N.N.N.N.N.N.N.N.N.N.N.N.N.N.N.N.N.b.N.N.N.N.N.N.N.N.N.N.N.m.m.N.N.N.m.N.N.N.m.N.N.n.N.N.n.N.N.N.N.N.N.N.N.N.N.N.N.",
"N.N.N.N.N.N.N.N.N.N.N.N.N.N.N.N.N.N.N.N.N.N.N.N.N.c.y.t.y.a.p.y.u.g.m.N.N.N.N.m.N.N.N.N.N.N.N.N.N.N.N.N.N.N.N.N.N.N.N.N.",
"N.N.N.N.N.N.N.N.N.N.N.N.N.N.N.N.N.N.N.n.N.N.M.f.j.g.1.$.=.=.>.1.&.4.g.g.c.x.N.N.N.N.n.N.M.N.N.N.N.N.N.N.N.N.N.N.N.N.N.N.",
"N.N.N.N.N.N.N.N.N.N.N.N.N.N.N.N.N.N.N.N.N.N.y.o.$.1.1.3.3.1.>.>.4.4.4.4.7.w.j.N.n.N.N.N.N.N.N.n.N.N.N.N.N.N.N.N.N.N.N.N.",
"N.N.N.N.N.N.N.N.N.N.N.N.N.N.N.N.N.N.N.N.9.3.6.=.*.-.>.4.:.,.>.:.4.#.4.&.4.4.q.e.f.N.N.N.N.N.N.N.N.N.N.N.N.N.N.N.N.N.N.N.",
"N.N.N.N.N.N.N.N.N.N.N.N.N.N.N.N.n.N.a.a.1.$.1.;.-.*.-.>.-.,.,.,.#.4.4.4.4.4.4.4.9.j.N.N.N.n.N.N.N.N.N.N.N.N.N.N.N.N.N.N.",
"N.N.N.N.N.N.N.N.N.N.N.N.N.N.N.N.N.j.=.=.1.=.=.=.-.;.-.>.-.2.4.4.4.&.4.4.4.4.4.4.1.t.x.m.N.N.N.N.N.N.N.N.N.N.N.N.N.N.N.N.",
"N.N.N.N.N.N.N.N.N.N.N.N.N.N.N.N.c.=.o.O.=.=.=.=.&.,.-.>.,.>.,.,.4.4.4.4.4.4.q.4.4.2.7.7.x.N.N.N.N.N.N.N.N.N.N.N.N.N.N.N.",
"N.N.N.N.N.N.N.N.N.N.N.N.N.N.a.$.1.$.| $.*.%.%.>.>.-.>.>.>.>.4.4.4.4.4.4.w.q.7.q.8.4.,.;.3.n.N.n.N.n.N.N.n.N.N.N.N.N.N.N.",
"N.N.N.N.N.N.N.N.N.N.n.N.N.h.1.D ] )  .@.$.%.*.*.>.>.2.4.4.,.,.,.4.4.4.4.5.q.w.4.7.5.,.&...5.n.n.N.N.N.N.N.N.N.N.N.N.N.N.",
"N.N.N.N.N.N.N.N.N.N.N.N.M.3.L W Y R ] $.o.@.&.>.>.,.4.4.4.4.,.,.4.4.4.9.q.w.q.q.7.3.5.+.{ _ 5.n.M.N.M.N.N.N.N.N.N.N.N.N.",
"N.N.N.N.N.N.N.N.N.N.N.N.3.R Y R ] ] / @./ R ` $.>.,.,.<.,.,.>.,.4.4.4.4.q.e.q.7.7.4.<.&.` U ( 5.N.N.N.N.N.N.N.N.N.N.N.N.",
"N.N.N.N.N.N.N.N.N.N.N.M.=.Q ~ Y )  .) X./ T / $.<.,.,.>.-.>.4.>.>.4.4.7.q.q.9.9.7.7.3.%.` ^ l W 0.N.N.N.N.N.N.N.N.N.N.N.",
"N.N.N.N.N.N.N.N.N.N.N.l.%.! ' J R | o.' / ) ] %.<.,.,.,.,.,.-.4.4.4.4.4.w.w.q.q.9.7.4.O.` J C s { N.n.N.N.N.N.N.N.N.N.N.",
"N.N.N.N.N.N.N.N.N.N.M.=.R T H V P } #./ ^ ] @.<.3.3.,.,.4.>.4.-.>.4.4.4.9.w.9.4.4.4.,.+.( ^ C s  .n.N.N.N.N.N.n.N.N.N.N.",
"N.N.N.N.N.N.N.N.N.n.=.Y K G N V P O.*.#.} | $.<.6.3.,.,.-.-.4.-.&.4.4.4.4.4.4.;.*.,.4.O.` J v s v &.N.n.N.N.n.N.N.N.N.N.",
"N.N.N.N.N.N.N.N.N.b.~ D V M M A T | :.-.X.} @.4.7.6.1.1.:.,.2.:.-.4.-.4.4.&.#. . .#.-.O.U J v s u C 0.N.N.N.N.N.N.N.N.N.",
"N.N.N.N.N.N.N.N.N.j.~ V V n V Y ( O.*.#.@.}  .6.6.6.6.7.,.:.4.:.&.4.-.4.-.O.( ^ ( O.#._ S S v s u 9 H n.M.N.n.N.N.N.N.N.",
"N.N.N.N.N.N.N.N.l._ G n n n V J ] @.#.#.#.} ( @.*.6.6.6.2.,.:.,.-.4.&.4.4.O.^ ^ E ! _ { U l i i < 9 M z.N.N.N.N.N.N.N.N.",
"N.N.N.N.N.N.N.N.l.N V Z n V G R Q X.#.} ( } *.*.6.:.:.6.2.:.,.,.-.4.-.4.4. .( ^ ! ^ W ^ J c s i u 9 M n.N.M.N.n.N.N.N.N.",
"N.N.N.N.N.N.N.N.l.N K _ V N W P L ] | ~ Y } 6.6.4.4.4.>.,.>.>.>.4.>.-.4.*.| ( ^ ! ) E J m l s q 6 6 v r.n.N.N.N.N.N.N.N.",
"N.N.N.N.N.N.N.N.l.R D R L H Y G D L T Y Y X.:.6.>.>.-.4.4.4.4.,.>.>.:.-.O.' ( ( ! ~ E J c i 8 5 6 u 0 M h.N.N.N.N.N.N.N.",
"N.N.N.N.N.N.N.n.c.Q n P H U Y A F Y Y Y K Q ] X.%.>.:.:.4.4.:.>.4.:.4.-. .^ ( ( ~ W I Z h i , - 6 6 9 c g.N.N.N.N.N.N.N.",
"N.N.N.N.N.N.n.M.1.V a P P V L N F F F K Y Y Q } O.>.4.:.&.>.:.4.>.>.>.-.{ ^ ' ' ) U Z M x s , = < 6 9 h h.N.N.N.N.N.N.N.",
"N.N.N.N.N.N.N.f.n w t H T V N D D D D Y Y Y Q } &.-.&.4.-.4.#.4.:.>.>.&.[ (  . .^ J Z Z l u , = > 6 q s i.N.n.N.N.N.N.N.",
"N.N.N.N.N.N.N.a.d w t Y _ G j N N D K K Q Q Q ] #.-.4.-.4.-.-.#.4.:.>.:.[ ^  .} I I H C e , ; = ; 6 < 6 v d.N.N.N.N.N.N.",
"N.N.N.N.N.N.N.a.t w g R _ P n N N N D K Y K Q ] O.&.4.4.-.4.&.O.#.:.4.-.[ ^ O.( H Z m g 3 > > = = 5 5 6 0 u.N.N.N.N.N.N.",
"N.N.N.N.N.N.N.s.j r c R ~ L n n N D D D D K Q ] O.O.#.&.-.4.#.[ | -.&.&. .} O.^ Z v g y , 3 5 3 , < < < a i.n.N.N.N.N.N.",
"N.N.N.N.N.N.N.f.n f k I / F d n N N D N F Y / ' X.X.O.*.*.*.O.[ } %.O.O.O. .| U Z l p y < ; 2 8 < < > , 9 i.n.N.N.N.N.N.",
"N.N.N.N.N.N.N.f.A h n U ^ L b D D N N D F F Q |  .|  .O.#.O.X.O.} O.[ } |  .( ^ C p i y 3 = , 6 , < , , q d.N.N.N.N.N.N.",
"N.N.N.N.N.N.N.f.H c Z U T I K L D N N D F K ^ } [ ( ( '  .O.X.O.} ( ( ' ' ' ^ I b p i q 5 ; > , > > > : r u.N.N.N.N.N.N.",
"N.N.N.N.N.N.N.f.A m H I I L F Q D D D D T ( ( ^ ^ ^ J ^ } O. . ._ ^ ( ( ( ^ I C z p p q > = > ; ; : > 5 q u.N.n.N.N.N.N.",
"N.N.N.N.N.N.N.a.N k D J P P U J d F F H H ( [ ^ ( / Q ! } X.X.} ! P ! } ^ E J C s i 8 3 ; - = & = & > 4 r u.N.n.N.N.N.N.",
"N.N.N.N.N.N.N.a.x N K G H Y U J d m Z F H I T ^ ( ^ ! ^ ( ( ' / / ! ( ' E I Z l p q 3 > ; = = & & & > q +.h.N.N.N.N.N.N.",
"N.N.N.N.N.N.N.j.~ x N G Y U R J d b Z H S F H T T E / ! ^ ^ ^ T ^ ' ] ( I S m p y 8 > ; = & & & & & = a h.N.N.N.N.N.N.N.",
"N.N.N.N.N.N.N.n.j.T n D H L U G d b m Z Z F F J P E / / ( ( ( ^ E ] ] / I Z x p q 5 > - = & & % = & # a h.N.N.n.N.N.N.N.",
"N.N.N.N.N.N.N.N.l.K k D A H P V d Z m Z M Z F Z P E ^ ( ( [ ( ^ ! _ ^ U I m z i 8 3 2 > = = $ $ # # = a j.n.N.N.N.N.N.N.",
"N.N.N.N.N.N.N.N.l.L j x N M V A d d b Z m Z S Z F ^ ( ^ T I P ^ ~ E I S C l p q < > > ; - = & $ + @ % q j.N.N.N.N.N.N.N.",
"N.N.N.N.N.N.N.N.h.N t k N h g n b b b Z m F F Z T ^ ^ E F m m H T F m x s i q 2 = ; > 2 ; & # @ # + : G g.N.N.N.N.N.N.N.",
"N.N.N.N.n.N.N.N.l.n t f x g h c b Z m m d Z F C E T I ^ I F m m H x x p r q 8 > = = > 2 - & # + + + k d.N.N.N.N.N.N.N.N.",
"N.N.N.N.N.N.N.N.M.0.n t j j h n C m Z b d C F F ^ ^ L L ^ T F b h p r 0 9 9 , , = ; - & & % @ + + + k c.N.N.N.N.N.N.N.N.",
"N.N.N.N.N.N.N.N.N.l.G t d j x x b b Z Z b Z F F m H H H Z S m b p r 0 4 : : : = & ; - # + @ # @ o 0 ] n.N.N.N.n.N.N.N.N.",
"N.N.N.N.N.N.N.N.N.m.P w t r j x b b m F F F F Z m Z S M b d d d e 7 4 > : & & % & & & & # o + . o Z n.N.N.N.M.N.N.N.N.N.",
"N.N.N.N.N.N.N.N.N.n.f.G w f a a d b m Z F F m m m b v b d d i w 7 2 , : = & & # $ = = @ @ X @ o X V N.n.N.N.N.N.N.N.N.N.",
"N.N.N.N.N.N.N.N.N.N.N.~ w 4 w w d d d m m m B B b b d d p w 4 2 2 - * * % % % @ % - * X X +     a 3.N.N.N.N.N.N.N.N.N.N.",
"N.N.N.N.N.N.N.N.N.N.N.o.x t w 4 y d d b b m m d d d d p 7 3 2 : - & $ & % % # # * & @ + + o   4 X.N.N.M.N.N.N.N.N.N.N.N.",
"N.N.N.N.N.N.N.N.N.N.N.N.X.t w 1 4 i d d d d d d i p i 8 3 1 - * & % $ % @ % % & % % X @ .   + _ n.M.N.N.N.N.N.n.N.N.N.N.",
"N.N.N.N.N.N.N.N.N.N.M.M.f.| t w 2 4 y i y d d y 4 3 3 > 1 * % $ % @ @ $ @ + % & o @ X X   . X { N.N.N.N.N.N.N.N.N.N.N.N.",
"N.N.N.N.N.N.N.N.N.N.n.N.N.y.Q d 7 3 4 1 7 4 4 4 7 - % % * % $ $ + + + + % X @ + X @ X . X o n 3.N.N.N.N.N.N.N.N.N.N.N.N.",
"N.N.N.N.N.N.N.N.N.N.N.N.N.N.q.V d 7 4 1 * 1 4 w - $ % * @ o o + + + + O + O + X . . X . 1 r <.N.N.N.N.N.N.N.N.N.N.N.N.N.",
"N.N.N.N.N.N.N.N.N.N.N.N.M.N.m.6.k 7 4 3 * & % * * X + O X @ + o + O O + . o @ . o o o 3 0.d.l.M.N.N.N.N.N.N.N.N.N.N.N.N.",
"N.N.N.N.N.N.N.N.N.N.M.N.N.N.N.c.$.f 7 1 1 * @ $ O X O O o o + . O + + X o .   @ o @ : +.l.N.N.N.N.N.N.N.N.N.N.N.N.N.N.N.",
"N.N.N.N.N.N.N.N.N.N.N.N.N.N.N.n.j.~ P t 1 * % + @ @ X # $ O + + @ X @ o @ @ @ @ X 2 R j.n.N.M.N.N.N.N.N.N.N.N.N.N.N.N.N.",
"N.N.N.N.N.N.N.N.N.n.N.N.N.N.N.N.n.n.c.P w 0 : * @ @ + + $ # # % & @ % % + @ @ % 1 N c.N.N.N.N.N.N.N.N.N.N.N.N.N.N.N.N.N.",
"N.N.N.N.N.N.N.N.M.N.N.N.N.N.N.n.N.N.N.a.r.W - - : # - = @ # # % & : X @ @ @ # J t.p.N.n.N.N.N.N.N.N.N.N.N.N.N.N.N.N.N.N.",
"N.N.N.N.N.N.N.N.N.N.N.N.N.n.N.N.N.N.M.N.N.5.{ ` W > = = = : % = : & , W ) ` ^ 5.N.N.N.N.N.N.N.N.N.N.N.N.N.N.N.N.N.N.N.N.",
"N.N.N.N.N.N.N.N.N.N.N.N.N.N.N.N.N.N.N.N.N.N.N.N.i.m s k g h k x x g V d.N.N.N.N.N.N.N.N.N.N.N.N.N.N.N.N.N.N.N.N.N.N.N.N.",
"N.N.N.N.N.N.N.N.N.N.N.N.N.N.N.N.N.N.N.N.N.N.N.N.N.f.z.j.j.h.h.k.l.h.h.N.N.M.N.N.N.N.N.N.N.N.N.N.N.N.N.N.N.N.N.N.N.N.N.N.",
"N.N.N.N.N.N.N.N.N.N.N.N.N.N.N.N.N.N.N.N.N.N.N.N.n.N.N.n.N.N.N.N.N.n.n.N.N.N.N.N.N.N.N.N.N.N.N.N.N.N.N.N.N.N.N.N.N.N.N.N.",
"N.N.N.N.N.N.N.N.N.N.N.N.N.N.N.N.N.N.N.N.N.N.N.N.N.N.N.N.N.N.N.N.N.N.N.N.N.N.n.N.N.N.N.N.N.N.N.N.N.N.N.N.N.N.N.N.N.N.N.N."
};
