/* XPM */
static xpm_row_t const  sun_xpm[] = {
/* columns rows colors chars-per-pixel */
"60 60 216 2 ",
"   c #030203",
".  c #0B0204",
"X  c #030A06",
"o  c #03030B",
"O  c #0D0908",
"+  c #130006",
"@  c #191400",
"#  c #17130A",
"$  c #060411",
"%  c #151412",
"&  c #221306",
"*  c #261909",
"=  c #221B13",
"-  c #2F2206",
";  c #3D230C",
":  c #3A2D07",
">  c #2C281A",
",  c #372612",
"<  c #1F2B2B",
"1  c #2F2935",
"2  c #4D3C0E",
"3  c #4C3B18",
"4  c #563B1B",
"5  c #5D3B1F",
"6  c #5A3C08",
"7  c #653F12",
"8  c #543C20",
"9  c #524207",
"0  c #6F480F",
"q  c #785628",
"w  c #3D3B48",
"e  c #484840",
"r  c #564F45",
"t  c #654C47",
"y  c #865D1C",
"u  c #805C2A",
"i  c #886227",
"p  c #996824",
"a  c #9C722A",
"s  c #A46828",
"d  c #AD7C2C",
"f  c #B17F2A",
"g  c #AA822D",
"h  c #B98626",
"j  c #BC8531",
"k  c #B48C34",
"l  c #CD8F28",
"z  c #D99B2E",
"x  c #D29432",
"c  c #D69C36",
"v  c #DB9A3C",
"b  c #D79837",
"n  c #D09137",
"m  c #E39F3A",
"M  c #DDA129",
"N  c #D6A235",
"B  c #E8AC29",
"V  c #F5AF24",
"C  c #FCAF25",
"Z  c #F5A62A",
"A  c #F4AD2E",
"S  c #FBAB2D",
"D  c #FDA52A",
"F  c #F4B22D",
"G  c #FAB22D",
"H  c #F7B124",
"J  c #E3A435",
"K  c #EEAE36",
"L  c #EAA439",
"P  c #FDA633",
"I  c #F5AD34",
"U  c #FBAC35",
"Y  c #F7A738",
"T  c #F5AE3B",
"R  c #FCAD3B",
"E  c #EEB335",
"W  c #EEBA33",
"Q  c #EDB53B",
"!  c #EDB93B",
"~  c #E3B432",
"^  c #F4B234",
"/  c #FBB234",
"(  c #F5BD36",
")  c #F5B23B",
"_  c #FBB23B",
"`  c #FBB93B",
"'  c #FEB836",
"]  c #E8B42C",
"[  c #BC9B66",
"{  c #CD9741",
"}  c #D79C42",
"|  c #E6A645",
" . c #FDA643",
".. c #F5AD43",
"X. c #FCAC43",
"o. c #FAAE49",
"O. c #F4AA49",
"+. c #EEB443",
"@. c #EEBB45",
"#. c #EEB64A",
"$. c #F4B343",
"%. c #FBB243",
"&. c #F3B944",
"*. c #FCB942",
"=. c #F4B54A",
"-. c #FCB44A",
";. c #F4BA4D",
":. c #FCBA4B",
">. c #EAB755",
",. c #F4B552",
"<. c #FAB454",
"1. c #F4BA55",
"2. c #FCBA54",
"3. c #FDB65C",
"4. c #F4BD5D",
"5. c #FBBC5C",
"6. c #CEA669",
"7. c #EDBA6B",
"8. c #F6BE63",
"9. c #FEBB63",
"0. c #FFBD6B",
"q. c #FBBE71",
"w. c #ECC149",
"e. c #F2C14E",
"r. c #EEC35D",
"t. c #F5C15D",
"y. c #F9C25E",
"u. c #F7C157",
"i. c #EEC56C",
"p. c #F4C461",
"a. c #FAC365",
"s. c #F5CB63",
"d. c #F4C26B",
"f. c #FCC36B",
"g. c #F4CA6C",
"h. c #F9C965",
"j. c #EEC774",
"k. c #F4C573",
"l. c #FCC473",
"z. c #FCCB73",
"x. c #FDC47B",
"c. c #F4CB7B",
"v. c #FCCC7C",
"b. c #F5C876",
"n. c #F7D17A",
"m. c #898D90",
"M. c #828687",
"N. c #9993A1",
"B. c #9DA0A7",
"V. c #F7CA83",
"C. c #FACB85",
"Z. c #FDCE8B",
"A. c #F9C985",
"S. c #F4D284",
"D. c #FBD285",
"F. c #F5D28A",
"G. c #FCD48B",
"H. c #F8DB88",
"J. c #FDCD95",
"K. c #FBCD98",
"L. c #EED593",
"P. c #F5D596",
"I. c #FDD394",
"U. c #FED59B",
"Y. c #FBDA99",
"T. c #F8DA99",
"R. c #EFE09B",
"E. c #EFDFA3",
"W. c #FFD7A3",
"Q. c #F4DAA2",
"!. c #FCDBA4",
"~. c #FADBAA",
"^. c #FDD7A8",
"/. c #FFDEB3",
"(. c #FFDEBB",
"). c #FBD8B4",
"_. c #FDE2A2",
"`. c #FCE1AA",
"'. c #F5E2A7",
"]. c #F6E2B5",
"[. c #FCE3B4",
"{. c #F4E8B3",
"}. c #FDE3BB",
"|. c #F8EBBE",
" X c #FFDEC7",
".X c #FEE5C4",
"XX c #F7E9C3",
"oX c #FCEAC3",
"OX c #FEE6CA",
"+X c #FCEBCC",
"@X c #F4E9C8",
"#X c #FBF2CE",
"$X c #F3F3CB",
"%X c #FDECD4",
"&X c #FEEEDB",
"*X c #FFE5D0",
"=X c #FCF2D6",
"-X c #F7F4DC",
";X c #FDF3DC",
":X c #F7F3D6",
">X c #FEEDE3",
",X c #FEEEEA",
"<X c #F1EAE0",
"1X c none",
"2X c none",
"3X c none",
"4X c none",
"5X c none",
"6X c none",
"7X c none",
"8X c none",
"9X c none",
"0X c none",
"qX c none",
"wX c none",
"eX c none",
/* pixels */
"eXeXeXeXeXeXeXeXeXeXeXeXeXeXeXeXeXeXeXeXeXeXeXeXeXeXeXeXeX0XeX9XeX9XwXeXqXwXwXeXeXeXeXeXeXeXeXeXeXeXeXeXeXeXeXeXeXeXeXeX",
"eXeXeXeXeXeXeXeXeXeXeXeXeXeXeXeXeXeXeXeXeXeXeXeXqX0X0X0XwXeXeXqXqXqXwXqX0XeXeXqXeXeXeXeXeXeXeXeXeXeXeXeXeXeXeXeXeXeXeXeX",
"eXeXeXeXeXeXeXeXeXeXeXeXeXeXeXeXeXeXeXeXeXeXeXeXeXeX0XwX0XeX0X0XeXeX0X0XeXwXeXeXeXeXeXeXeXeXeXeXeXeXeXeXeXeXeXeXeXeXeXeX",
"eXeXeXeXeXeXeXeXeXeXeXeXeXeXeXeXeXeXeXeXeXeXeXeXeXwXwXeXeXqXeXeXeXeX0XeXwXwX0XeXeXeXeXeXeXeXeXeXeXeXeXeXeXeXeXeXeXeXeXeX",
"eXeXeXeXeXeXeXeXeXeXeXeXeXeXeXeXeXeXeXeXeXeXeXeXeXeXeX0X0X8X.X[.}.0X0X0XeXeXeX0XeXeXeXeXeXeXeXeXeXeXeXeXeXeXeXeXeXeXeXeX",
"eXeXeXeXeXeXeXeXeXeXeXeXeXeXeXeXeXeXeXeXeXeXeXeXeX0XqXwXwX0Xc.A b.eXwXeX0XeXeXwXeXeXeXeXeXeXeXeXeXeXeXeXeXeXeXeXeXeXeXeX",
"eXeXeXeXeXeXeXeXeXeXeXeXeXeXeXeXeXeXeXeXeXeXeXeXwX0XeX0X0X,Xb.S c.7XeXqXqXeXqX9XeXeXeXeXeXeXeXeXeXeXeXeXeXeXeXeXeXeXeXeX",
"eXeXeXeXeXeXeXeXeXeXeXeXeXeXeXeXeXeXeXeXeXeXeXeXeXeXqX'.S.x.$.U ` F.c.}.eX9XqXeXeXeXeXeXeXeXeXeXeXeXeXeXeXeXeXeXeXeXeXeX",
"eXeXeXeXeXeXeXeXeXeXeXeXeX0XeXwXqXeXwX0X0X9XeXeX0XeXwXb.S ) ] *.R U / W.qXeXwXeXwXeXeX0XeXeXeXeXeX0X0XwXeXeXeXqXeXeXeXeX",
"eXeXeXeXeXeXeXeX0X0XeXeXeXeXeXeXeXeXqXeXeXeX0X0X0X;X>XC.U _ U U %.^ ^ P.3X3X0XwXeXeX0XeXeXeXeXeXeXeXeXeXeXqXeXeXeXeXeXeX",
"eXeXeXeXeXeXeXeXeXeXeXeXqXeX0XeX9X0X0XqXeXeXeXqX{.1.8.=.A ) X. .U ^ ^ #.e.p.oXeXeXqXqXeXeXeX0X0XeXeXeXqXeXwXeXeXeXeXeXeX",
"eXeXeXeXeXeXeXeXeXeX0X0XwXeXeXeXqXeXeXeXwXwXeX0X(...S ^ ^ ..%.) R R R R R 9.&XeX4X0XwXwX0XeXeX9X5XeXeXeXeX0XqXeXeXeXeXeX",
"eXeXeXeXeXeXeXeXeXeXeX0XeX0X}.}.}.}.[.oX[.oX0X0XOXA.g.g.x.c.d.h.g.j.b.x.z.I.3X0X0XOXOX+X}. XOXOX[.eXeX0XeX0XeXeXeXeXeXeX",
"eXeXeXeXeXeXeXeXeXwXeXqXqX%X;.! ) @./ $.A 5.1XeX9X0XeXqXqXeXeXeX0XeXeXeX2X6XwXeX%X%.S ` ^ ) F R j.3XwXqXeX0XeXeXeXeXeXeX",
"eXeXeXeXeXeXeXeX0X9XeX0XeX%X%.P R ) P %.^ 4.1XeXwX8X0XeXeX9XeX9XqXwX0XeXeX0XeX8X$X&.I Q G / /  .,.3X0XeXeX0XeXeXeXeXeXeX",
"eXeXeXeXeXeXeXeXqXwXeX0XwX&X=.$.R Q X.Z.Y./.eX0X>XK.F.P.G.Z.K.I.Z.L.H.V.J.Q.:XqX0XW.).c.)  .) ^ 2.3XeXeXwX0XeXeXeXeXeXeX",
"eXeXeXeXeXeXeXeXeXeXwXqX0X%X_ o.X.^ _ #XqXeXeXeX[.Q G T Y _ ) F _ S ) ^ U ! #XeXeX0XeX_.+.R o.~ 2.3X0X0XeX0XqXeXeXeXeXeX",
"eXeXeXeXeXeXeXeX0XeX9XeX0X&X` $.<.;.! XXeXeX2XqX^.,./ I / -.,.$.=.P _ R  .=.OX0X2X9XwX^.2.e.R S 4.qXeXeXwXeXeX0XeXeXeXeX",
"eXeXeXeXeXeXeXeXeXqXwXqXeX:X:.*.D.1X%XqXeX2Xi.5.1./ _ T U -.-.I G / ) T _ A 5.2.Z.3XeX8X-X#X0.U 1.5XeXeXeXwXeXwXeXeXeXeX",
"eXeXeXeXeXeXeXeXeXeXeXqXeX%X$.D v.eXeXqX5X;X1.R U U R T ^ _ -./ Y _ X._ ) ^ _ U f.0XwXqX0X8Xi.A 5.;XeX0X0X0XeXeXeXeXeXeX",
"eXeXeXeXeXeXeXeXwX0X0X0X4X:XA.l.`.eX0X,X+X}.+./ T _ %.-.^ B I ^ $._ I ^ ) $.I I 5.}.%X3XeX0XI.b.G.3XeX9X0XeXqXeXeXeXeXeX",
"eXeXeXeXeXeXeXeXeXeXeXeXwXeX8X8X0XwX4Xz.! =.P X.Y ) R  . .*.%...T $.R U ^ X.R R ) #.) U.qXqX2X8X1XeXeXwXeXqXeXeXeXeXeXeX",
"eXeXeXeXeXeXeXeX0XeXqXeXeXeXeXeXeXqXqXx.I R o.) ' W ^ ' F ^ R _ ' ) ^ U / ..I +._ I A T.eXeX0XeXqX0X0XeXeXeXeXeXeXeXeXeX",
"eXeXeXeXeXeXeXeX0XeX0X|.Q.[.5XwX+XH.E.5./ ^ -.( n y q 6.T.I.,.G x y u [ T.J.` ^ / $.X.t.U.Y.6XeX8X@X.X1X0XeX9XeXeXeXeXeX",
"0XeX0XeXeX0XeXwX0XeXeXZ.S 5.8XeX!.I U _ R _ %.:.s   . N.0X0X9.^ g   . m.0XqX0./ ) ) / U ) R @XeX;XC.b.!.eXeX0XwXeXeXeXqX",
"eXeXeXeXeXqXeXeXeX8X1XV.^ a.9X0X~.I I T $.) _ *.a     N.qX<X3.' d     M.qX6X8.K _ R _ R ) _ OXeX;X2.E z.1XqXeXeX0X0XeXwX",
"eXeXeXeXeXeX0XeX!.b.f.=.I a.0XeX~._ R _ R I U ) a X . 1 w r } ` d X   < w e c _ R T _ R ) %.OXeX:X5. .2.s.k.}.qX0XeXeX9X",
"wXeX0X0XeXeXwXwXG.R P R ) y.8XeX~.^ R ) _ ^ R _ p .     o @ l _ h +     o . j _ _ T U R ) ..OXeX=X;.R R V R [.eXeXwXwX0X",
"eX0XeX0XqXqX+X%XD...T $.^ 3.8XeX~.I R _ %./ R ) g - , > > : N $.k ; , : & 2 { ) I T R R ) %.OX0X>X&.I T ) -.!.$X+XeXeXeX",
"eXqXeXwXeX+Xp.-.! I %.F V 0.0X0X~.T R ) T / R ) R | J J >.7.f.q.1.| m L m m I / / ) ) %.$.%.OXeX,X;.X.=.Q D $.;.y.=XeXqX",
"eXqXeX0X0X}.! Z ..P %.U ^ 0.0XwX~.^ U ) T ) R T C / %.2.f.D.v.c.v.&.) %._ / K ..U ) _ R &.%.OXeX1X&.S U %.U R U ,.#XeXqX",
"eXeXeX0XeX,XS.J.8.' I T $.8.0XeX~.) / T R ) R R $.) ..T $.:.O.*.3./ _ R ^ S R R ^ T _ ..$.$.OXeX&X;./ I $.X.d.F.I.5XwX0X",
"eXeXeXeXeXeXeXeXI.F T _ R t.0XeXT..._ ^ R ^ ) X.X.I %.R T $.I I ..C / H %._ ^ ^ U / _ ) U X.OXeX;X2.T U R / ].0XeXeXeXeX",
"eXeXeXeXeXeXeXeXI.) #.) P 4.0XqX!.o.o.^ S / %._ / B T U I $./ $.) ..o.) T X.R  .$.T R $._ $.oX0X%X2.R I ..$.}.eXeXeXeXeX",
"eXeXeXeXeXeXeXeX1X[.[.4.E i.0X0X!.Y T ( / R X.U j 2 2 h R R S _ I _ o.p 3 8 x / ^ P R T U $.oXeX-X;.T c.OXOX5XwXeXeXeXeX",
"eXeXeXeXeXeXeXeX0XeX0X0.H d.8X8X/.I I $...) ) ( s $ o a *.) / R ) A %.q X # h _ U _ %._ U %..XwX:Xo.P Z.5X0XwXqXeXeXeXeX",
"eXeXeXeXeXeXeXeXeXeX0Xb.*.v.0XqXT.w.w.) U _ -.u.d * * p } b z v b B z q = t n ) X.) F W ;.9.OXeX3Xq.=.T.eXeXeX0XeXeXeXeX",
"eXeXeXeXeXeXeXeXqXeXeX7X3X;X9XeXeX8X>Xl.U U o.o.K b v 0 @ * @ % # # & i N L U X.) I ..I.8X,XqX9X0X1X2XeXwX0X0XwXeXeXeXeX",
"eXeXeXeXeXeXeXeXeXwX0X0XeX0XwXqX0XeXqXd.I W ^ / ..) %.7     o $ . o   i %.Z ` ^ _ _ I S.wXwXeX5XeXeXwXwXwX0XeXeXeXeXeXeX",
"eXeXeXeXeXeXeXeX0XqXeXqXwX8XXX[.&X0XwXI.C.b.$.R S / $.p 4 3 4 6 4 6 8 d R _ +.U $.z.x.[.eX0X%X}.@X8XeXqXeXeXeX0XeXeXeXeX",
"eXeXeXeXeXeXeXeXeXeXeXwXeX=X%.R D.qXeXeX0X1X,.R R X.R U o.I S ..U T X.X.^ / R R 5.0XeXeXeX0Xx.I 5.1XeXeXeXeX0XeXeXeXeXeX",
"eXeXeXeXeXeXeXeXeXwXeXeXeX%X$.T F.0XeXwX0X>X1.E ! ^ _ ) ^ ) =.E ) ^ ) ^ ^ I $.) b.2XeXeX9XwXA.U 5.2XeXeXwXeXeXeXeXeXeXeX",
"eXeXeXeXeXeXeXeX0XeXeXeXeX;X;.:.q.I.S.%X5X8X}.].v.P R $.A %.3.I X.T / R _ %.U.!..XqXeX;X`.[.v.%.5.2XeXeXeXeX0XeXeXeXeXeX",
"eXeXeXeXeXeXeXeXeXeXeXeX0X%X$.$.o.G ^ OXeXeXeXeX.X%.C ) / _ =.U ^ $.^ U I #.%XeX0XeXeX).5.9.f.<.5.3X0XqXwXeXeXeXeXeXeXeX",
"eXeXeXeXeXeXeXeXeXeXeXeXqX#X%.R =.I %.}.-X6XeX0X(.<.R >.<.%.#.-._ =.=.<.:.4.%X0XeX;X3X!.$.S $.I 5.3X0XeX0XeXeXeXeXeXeXeX",
"eXeXeXeXeXeXeXeXeXeXeXeXeX=X%._ ^ T Y 1.w.v.8XeX4X>X,X1X1X;X:X;X1X1X;X1X;X%XqX9X%Xr.8.=.G ^ *.U 4.2XeXeXeXeXeXeXeXeXeXeX",
"eXeXeXeXeXeXeXeXeXeXeXeXeX%X#.$./ ) _ R Z 3.6XeXeX0XeXeX0XeXeX0XeX0XeXeX0X0XeX0X%X&.R D ^ R ) I p.3XwXeXeXeXeXeXeXeXeXeX",
"eXeXeXeXeXeXeXeXeXwXeXeXeX1Xh.a.l.q.h.l.d.z.9XqX7X@X|.oXOXOX&X@X@X@X*XOXXX:X8XeX1Xy.l.f.j.l.f.d.z.8XeXeXeXeXeXeXeXeXeXeX",
"eXeXeXeXeXeXeXeXeXeXeXeXeXeXeXeX0X0XeX0XeX0XeX0X{.$.X._ *.) %.W _ %.%.+.-.y.=XeX0X0XwX0X0X0X0X0XeXeXeXeXeXeXeXeXeXeXeXeX",
"eXeXeXeXeXeXeXeXeXeXeXeXeXeXeXeXeXeX0XeXeXeXeXeX].) R ^ ^ )  .X.^ %...^ X.3.%X0XeXeXeXeXeXeXeXeXeXeXeXeXeXeXeXeXeXeXeXeX",
"eXeXeXeXeXeXeXeXeXeXeXeXeXeXeXeXeXeXeXeXeXeXeXeX>XT.U.8.T ^ R R ^ R O.g.U.^.3X0XeXeXeXeXeXeXeXeXeXeXeXeXeXeXeXeXeXeXeXeX",
"eXeXeXeXeXeXeXeXeXeXeXeXeXeXeXeXeXeXeXeXeXeXeXeXeXeXqXZ.P ^ _ ) %.I I Y.eXwXeXeXeXeXeXeXeXeXeXeXeXeXeXeXeXeXeXeXeXeXeXeX",
"eXeXeXeXeXeXeXeXeXeXeXeXeXeXeXeXeXeXeXeXeXeXeXeX0XwX0XI.) %.I K $.=.%.!.0XeX9XwXeXeXeXeXeXeXeXeXeXeXeXeXeXeXeXeXeXeXeXeX",
"eXeXeXeXeXeXeXeXeXeXeXeXeXeXeXeXeXeXeXeXeXeXeXeXeXeXeX,XOX/.9.R d..XoX3XeXqXeXeXeXeXeXeXeXeXeXeXeXeXeXeXeXeXeXeXeXeXeXeX",
"eXeXeXeXeXeXeXeXeXeXeXeXeXeXeXeXeXeXeXeXeXeXeXeXeX9X0XqXwX4Xd.F g.0XwXwXeXeX0X0XeXeXeXeXeXeXeXeXeXeXeXeXeXeXeXeXeXeXeXeX",
"eXeXeXeXeXeXeXeXeXeXeXeXeXeXeXeXeXeXeXeXeXeXeXeXqXeX0X0XwXeXJ.9.J.eXeXqX0XeX0XeXeXeXeXeXeXeXeXeXeXeXeXeXeXeXeXeXeXeXeXeX",
"eXeXeXeXeXeXeXeXeXeXeXeXeXeXeXeXeXeXeXeXeXeXeXeXeXeXeXeXeXeX0X9XeXeXeXeXeXeXeXeXeXeXeXeXeXeXeXeXeXeXeXeXeXeXeXeXeXeXeXeX",
"eXeXeXeXeXeXeXeXeXeXeXeXeXeXeXeXeXeXeXeXeXeXeXeXeXeXeXeXeXeXeXeXeXeXeXeXeXeXeXeXeXeXeXeXeXeXeXeXeXeXeXeXeXeXeXeXeXeXeXeX",
"eXeXeXeXeXeXeXeXeXeXeXeXeXeXeXeXeXeXeXeXeXeXeXeXeXeXeXeXeXeXeXeXeXeXeXeXeXeXeXeXeXeXeXeXeXeXeXeXeXeXeXeXeXeXeXeXeXeXeXeX",
"eXeXeXeXeXeXeXeXeXeXeXeXeXeXeXeXeXeXeXeXeXeXeXeXeXeXeXeXeXeXeXeXeXeXeXeXeXeXeXeXeXeXeXeXeXeXeXeXeXeXeXeXeXeXeXeXeXeXeXeX"
};
