/* XPM */
static char * walkright1black_xpm[] = {
"22 22 4 1",
" 	c None",
".	c #000000",
"+	c #F8A4C0",
"@	c #7C7C7C",
"                      ",
"   ..   .....         ",
"  .++...@@@@@..       ",
"  .++.@@@@@@@@@.      ",
"   ..@@@@+++++++.     ",
"    .@@@++++.++..     ",
"    .@@@++++.++..     ",
"    .@@@++++.++..     ",
"    .@@@@+++++++.     ",
"     .@@@@..@@..      ",
"     .....@@..++.     ",
"    .@.++.@@@@.+.     ",
"   .@@.++.@@@@@..     ",
"   ........@@@..      ",
"   .+..++++...+.      ",
"    ...@@+++++@@..    ",
"     .@@@@..@@@.++.   ",
"    .+.@@. ....++..   ",
"    .++............   ",
"   ...++..........    ",
"   ..............     ",
"    .......           "};
