/* XPM */
static xpm_row_t const  wall_xpm[] = {
"22 22 86 1",
" 	c #010101",
".	c #000000",
"+	c #848484",
"@	c #C4C4C4",
"#	c #C6C6C6",
"$	c #C7C7C7",
"%	c #BDBDBD",
"&	c #969696",
"*	c #575757",
"=	c #FEFEFE",
"-	c #EAEAEA",
";	c #E7E7E7",
">	c #E6E6E6",
",	c #F0F0F0",
"'	c #D9D9D9",
")	c #7F7F7F",
"!	c #505050",
"~	c #3A3A3A",
"{	c #454545",
"]	c #343434",
"^	c #939393",
"/	c #F9F9F9",
"(	c #D8D8D8",
"_	c #7D7D7D",
":	c #9D9D9D",
"<	c #989898",
"[	c #949494",
"}	c #C2C2C2",
"|	c #FAFAFA",
"1	c #D6D6D6",
"2	c #D0D0D0",
"3	c #FBFBFB",
"4	c #D7D7D7",
"5	c #FFFFFF",
"6	c #E2E2E2",
"7	c #D3D3D3",
"8	c #E5E5E5",
"9	c #E0E0E0",
"0	c #363636",
"a	c #959595",
"b	c #CBCBCB",
"c	c #D2D2D2",
"d	c #C5C5C5",
"e	c #F5F5F5",
"f	c #B2B2B2",
"g	c #E1E1E1",
"h	c #DEDEDE",
"i	c #ECECEC",
"j	c #FDFDFD",
"k	c #B9B9B9",
"l	c #FCFCFC",
"m	c #F8F8F8",
"n	c #7E7E7E",
"o	c #8C8C8C",
"p	c #CCCCCC",
"q	c #CACACA",
"r	c #C9C9C9",
"s	c #818181",
"t	c #464646",
"u	c #656565",
"v	c #646464",
"w	c #696969",
"x	c #494949",
"y	c #414141",
"z	c #606060",
"A	c #616161",
"B	c #808080",
"C	c #B0B0B0",
"D	c #AFAFAF",
"E	c #878787",
"F	c #A9A9A9",
"G	c #565656",
"H	c #484848",
"I	c #4A4A4A",
"J	c #A0A0A0",
"K	c #252525",
"L	c #6C6C6C",
"M	c #2F2F2F",
"N	c #A3A3A3",
"O	c #A4A4A4",
"P	c #373737",
"Q	c #2E2E2E",
"R	c #383838",
"S	c #858585",
"T	c #BBBBBB",
"U	c #5A5A5A",
" .....................",
".+@#$$$$$$$$$$$$$#%&*.",
".@=-;;;;;;;;;;;;>,=').",
".#-!~{{{{{{{{{{{]^/(_.",
".$;~_:<<<<<<<<<<[}|(_.",
".$;{:1>>>>>>>>>>2134_.",
".$;{<;55555555556734_.",
".$;{<85========59734_.",
".$>0ab4444444444@c34_.",
".def7ghhhhhhhhhhhij4_.",
".kl//|||||||||||||m7n.",
".opqqqqqqqqqqqqqqqr}s.",
".tuvvvvvvvvvvvvvvvvwx.",
".yzAAAAAAAAAAAAAAAAzy.",
".BkCDDDDDDDDDDDDDDCkB.",
".EFGHIIIIIIIIIIIIHGFE.",
".EJKLE++++++++++ELKJE.",
".EJM+NJJJJJJJJJJN+MJE.",
".EOPQRPPPPPPPPPPRQPOE.",
".STOJJJJJJJJJJJJJJOTS.",
".USEEEEEEEEEEEEEEEESU.",
"......................"};
