/* XPM */
static xpm_row_t const brick_xpm[] = {
"22 22 140 2",
"  	c #000000",
". 	c #971E00",
"+ 	c #D52F00",
"@ 	c #B72700",
"# 	c #180100",
"$ 	c #BB2800",
"% 	c #CF2C00",
"& 	c #9E1500",
"* 	c #620500",
"= 	c #B02500",
"- 	c #F33600",
"; 	c #DC2D00",
"> 	c #DA2B00",
", 	c #BB2400",
"' 	c #1E0200",
") 	c #D93000",
"! 	c #EA3200",
"~ 	c #D52900",
"{ 	c #B11700",
"] 	c #730700",
"^ 	c #A22100",
"/ 	c #D92E00",
"( 	c #A31300",
"_ 	c #9B0E00",
": 	c #850A00",
"< 	c #1B0200",
"[ 	c #C92B00",
"} 	c #C72600",
"| 	c #690600",
"1 	c #3D0700",
"2 	c #550C00",
"3 	c #3D0300",
"4 	c #3A0200",
"5 	c #310100",
"6 	c #050000",
"7 	c #4D0A00",
"8 	c #4D0800",
"9 	c #250100",
"0 	c #8E1C00",
"a 	c #450800",
"b 	c #B92700",
"c 	c #C82B00",
"d 	c #9B1700",
"e 	c #870B00",
"f 	c #7A0800",
"g 	c #A62200",
"h 	c #C32900",
"i 	c #941300",
"j 	c #5B0500",
"k 	c #F43600",
"l 	c #E22F00",
"m 	c #E02E00",
"n 	c #B62400",
"o 	c #580D00",
"p 	c #E43300",
"q 	c #EB3300",
"r 	c #B91B00",
"s 	c #A81000",
"t 	c #980D00",
"u 	c #300100",
"v 	c #CD2D00",
"w 	c #EF3500",
"x 	c #DB2C00",
"y 	c #B31800",
"z 	c #AA2300",
"A 	c #E43100",
"B 	c #AA1500",
"C 	c #A20F00",
"D 	c #830A00",
"E 	c #540C00",
"F 	c #DD3100",
"G 	c #C92500",
"H 	c #930C00",
"I 	c #2E0100",
"J 	c #C62B00",
"K 	c #D72B00",
"L 	c #6F0700",
"M 	c #530C00",
"N 	c #711300",
"O 	c #530500",
"P 	c #4F0300",
"Q 	c #3E0200",
"R 	c #260300",
"S 	c #6E1300",
"T 	c #630D00",
"U 	c #470300",
"V 	c #120000",
"W 	c #621000",
"X 	c #6A1000",
"Y 	c #340100",
"Z 	c #841900",
"` 	c #B62600",
" .	c #8A1100",
"..	c #7E0900",
"+.	c #6B0600",
"@.	c #140100",
"#.	c #A32100",
"$.	c #971800",
"%.	c #550400",
"&.	c #F53700",
"*.	c #E83200",
"=.	c #E73100",
"-.	c #E12F00",
";.	c #B51900",
">.	c #900C00",
",.	c #F03500",
"'.	c #C11F00",
").	c #EC3300",
"!.	c #B21700",
"~.	c #AA1100",
"{.	c #D82B00",
"].	c #A91000",
"^.	c #8A1400",
"/.	c #BF1E00",
"(.	c #AA1200",
"_.	c #150100",
":.	c #AB1B00",
"<.	c #B71A00",
"[.	c #5A0400",
"}.	c #810A00",
"|.	c #6E0700",
"1.	c #0A0000",
"2.	c #700700",
"3.	c #570400",
"4.	c #5E0500",
"5.	c #6D0700",
"6.	c #2C0100",
"7.	c #7C0900",
"8.	c #5C0500",
"9.	c #760800",
"0.	c #880B00",
"a.	c #390200",
"b.	c #9A0E00",
"c.	c #8A0B00",
"d.	c #520400",
"e.	c #770800",
"f.	c #5F0500",
"g.	c #1F0100",
"h.	c #610500",
"i.	c #500400",
"                                            ",
"  . + + + + + + + @ # $ + + + + + % & *     ",
"  = - ; > > > > > , ' ) ! > > > > ~ { ]     ",
"  ^ / ( _ _ _ _ _ : < [ } _ _ _ _ _ _ |     ",
"  1 2 3 4 4 4 4 4 5 6 7 8 4 4 4 4 4 4 9     ",
"  0 [ [ [ ^ a b [ [ c d e f 9 g [ h i j     ",
"  = k l m n o p q m m r s t u v w x y ]     ",
"  z A B C D E F G C C C C H I J K C C L     ",
"  M N O P Q R S T P P P P U V W X P P Y     ",
"  Z $ $ $ $ `  ...+.@.#.$ $ $ $.......%.    ",
"  = &.*.=.=.-.;.s >.' ) ,.=.=.'.s s s ]     ",
"  = ).!.~.~.~.s s >.' ) {.~.~.].s s s ]     ",
"  ^./.(.s s s s s >._.:.<.s s s s s s ]     ",
"  [.}.}.}.}.}.}.}.|.1.2.}.}.}.}.}.}.}.3.    ",
"                                            ",
"                                            ",
"  4.e e e 5.6.7.e e e e e f 9 L e e e 8.    ",
"  9.s s s 0.a.b.s s s s s t u c.s s s ]     ",
"  9.s s s 0.a.b.s s s s s t u c.s s s ]     ",
"  9.s s s 0.a.b.s s s s s t u c.s s s ]     ",
"  d.e.e.e.f.9 5.e.e.e.e.e.+.g.h.e.e.e.i.    ",
"                                            "};
