/* XPM */
static xpm_row_t const upidleblack_xpm[] = {
"22 22 4 1",
" 	c None",
".	c #000000",
"+	c #7C7C7C",
"@	c #F8A4C0",
"                      ",
"         .....        ",
"       ..+++++..      ",
"      .+++++++++.     ",
"     .++@@@@@@@++.    ",
"     .+@@.@@@.@@+.    ",
"     .+@@.@@@.@@+.    ",
"     .+@@.@@@.@@+.    ",
"     .++@@@@@@@++.    ",
"      .+++++++++.     ",
"     .+.........+.    ",
"    .++.@@@@@@@.++.   ",
"   .@..@@@@@@@@@..@.  ",
"   .@@....+++....@@.  ",
"    ...@@@@@@@@@...   ",
"      .+@@@@@@@+.     ",
"      .+++...+++.     ",
"      ...........     ",
"     ..@@@...@@@..    ",
"    ...............   ",
"     .............    ",
"                      "};
