/* XPM */
static xpm_row_t const coin5_xpm[] = {
"22 22 122 2",
"  	c None",
". 	c #000000",
"+ 	c #656565",
"@ 	c #827640",
"# 	c #DBC220",
"$ 	c #DBCC69",
"% 	c #DBCD6D",
"& 	c #7C7757",
"* 	c #808080",
"= 	c #5C5C5C",
"- 	c #928339",
"; 	c #C3AC17",
"> 	c #FFE123",
", 	c #F7DF58",
"' 	c #F7DF5A",
") 	c #BCAD53",
"! 	c #9A9269",
"~ 	c #727272",
"{ 	c #665D37",
"] 	c #C8B018",
"^ 	c #FEE020",
"/ 	c #FCDD1D",
"( 	c #F1D108",
"_ 	c #F0D007",
": 	c #FAE464",
"< 	c #C0B156",
"[ 	c #7D7967",
"} 	c #E9CD1E",
"| 	c #FFE121",
"1 	c #FADC1B",
"2 	c #EECE01",
"3 	c #FFE120",
"4 	c #F1D10A",
"5 	c #F6DE59",
"6 	c #E5D671",
"7 	c #FFE963",
"8 	c #FFEC76",
"9 	c #FFEB70",
"0 	c #FFE122",
"a 	c #E5D571",
"b 	c #605738",
"c 	c #BAA101",
"d 	c #F5D71E",
"e 	c #F9DB19",
"f 	c #F6D713",
"g 	c #F8D917",
"h 	c #F9DA14",
"i 	c #FBE045",
"j 	c #FCE354",
"k 	c #FCE353",
"l 	c #FFE862",
"m 	c #F9DC30",
"n 	c #F6DA3B",
"o 	c #EBD454",
"p 	c #C1B45F",
"q 	c #4E492A",
"r 	c #5F5F5F",
"s 	c #584B01",
"t 	c #F5D505",
"u 	c #FEDF1E",
"v 	c #F5D612",
"w 	c #F2D30C",
"x 	c #F6D607",
"y 	c #F8D808",
"z 	c #FADA0A",
"A 	c #FBDC25",
"B 	c #FFEE7E",
"C 	c #FFE441",
"D 	c #F6D715",
"E 	c #F1D437",
"F 	c #FFEE7F",
"G 	c #514B24",
"H 	c #616161",
"I 	c #5B5B5B",
"J 	c #5A5A5A",
"K 	c #676049",
"L 	c #AD9601",
"M 	c #EFD114",
"N 	c #F8D914",
"O 	c #F6D714",
"P 	c #F6D815",
"Q 	c #FADB15",
"R 	c #F8D90D",
"S 	c #F7D707",
"T 	c #F8D91A",
"U 	c #FFE85C",
"V 	c #F8DB2D",
"W 	c #EACE2A",
"X 	c #B4A858",
"Y 	c #757267",
"Z 	c #E0C204",
"` 	c #FBDC18",
" .	c #F7D70C",
"..	c #F8D80F",
"+.	c #E5CA1D",
"@.	c #E5CA1C",
"#.	c #565039",
"$.	c #BDA405",
"%.	c #F8D910",
"&.	c #FDDE1E",
"*.	c #F0D006",
"=.	c #EFCF04",
"-.	c #FADC1A",
";.	c #BCA514",
">.	c #747062",
",.	c #898989",
"'.	c #90814A",
").	c #B8A007",
"!.	c #F9DA13",
"~.	c #F2D204",
"{.	c #F2D203",
"].	c #F2D205",
"^.	c #B7A113",
"/.	c #9A8E5F",
"(.	c #909090",
"_.	c #7A7A7A",
":.	c #897E59",
"<.	c #CFB403",
"[.	c #D0B506",
"}.	c #D8BE1A",
"|.	c #898162",
"1.	c #929292",
"                . . . . . .                 ",
"            + @ # $ % % % % & *             ",
"          = - ; > , ' ' ' ' ) ! ~           ",
"          { ] ^ / ( _ _ _ _ : < [           ",
"        . } | 1 2 ^ | 3 | | 4 5 6 .         ",
"        . } | 1 2 ^ 7 8 9 0 4 5 a .         ",
"      b c d e f g h i j k l m n o p q       ",
"    r s t u v w 3 x y z A B C D E F G       ",
"    H s t u v w 3 x y z A B C D E F G       ",
"    H s t u v w 3 x y z A B C D E F G       ",
"    H s t u v w 3 x y z A B C D E F G       ",
"    I s t u v w 3 x y z A B C D E F G       ",
"    J s t u v w 3 x y z A B C D E F G       ",
"    J s t u v w 3 x y z A B C D E F G       ",
"    I s t u v w 3 x y z A B C D E F G       ",
"      K L M N O P Q R S T U V O W X Y       ",
"        . Z ` 1 2 ^ h  ...| 4 D +..         ",
"        . Z ` 1 2 ^ | | | | 4 D @..         ",
"          #.$.%.&.*.=.=.=.=.-.;.>.          ",
"          ,.'.).!.~.{.{.].g ^./.(.          ",
"            _.:.<.<.<.<.[.}.|.1.            ",
"                . . . . . .                 "};
