/* XPM */
static char * coin3_xpm[] = {
"118 117 89 1",
" 	c None",
".	c #6F6F6F",
"+	c #000000",
"@	c #BBBBBB",
"#	c #CCCCCC",
"$	c #979797",
"%	c #8D8D8D",
"&	c #797248",
"*	c #685C0E",
"=	c #8A8771",
"-	c #848484",
";	c #887812",
">	c #FFE121",
",	c #443C09",
"'	c #C7C7C7",
")	c #FADB17",
"!	c #F6D710",
"~	c #FCDD1B",
"{	c #F5D50E",
"]	c #EDCD00",
"^	c #F8DA15",
"/	c #7B7B7B",
"(	c #BABABA",
"_	c #AFAFAF",
":	c #5D5D5D",
"<	c #7C733B",
"[	c #9B8914",
"}	c #CBB110",
"|	c #F4D50D",
"1	c #F6D711",
"2	c #F8D914",
"3	c #FCE451",
"4	c #FFEB75",
"5	c #FFE43C",
"6	c #B6A118",
"7	c #6B674D",
"8	c #646464",
"9	c #868686",
"0	c #7B6D10",
"a	c #F5D60F",
"b	c #F7D913",
"c	c #FFEB78",
"d	c #FFF1AB",
"e	c #FFE64D",
"f	c #383107",
"g	c #D4D4D4",
"h	c #F7DF4C",
"i	c #FFEC83",
"j	c #FFEF9C",
"k	c #F7E264",
"l	c #F7DA23",
"m	c #FFEC82",
"n	c #909090",
"o	c #C6C6C6",
"p	c #F7E15C",
"q	c #FFF09E",
"r	c #FFF0A6",
"s	c #F7E263",
"t	c #FFF1AA",
"u	c #F3D836",
"v	c #342D00",
"w	c #FDE975",
"x	c #F8E46C",
"y	c #B3B3B3",
"z	c #817D60",
"A	c #4C430A",
"B	c #A99411",
"C	c #FAE250",
"D	c #FAE678",
"E	c #F5DD4C",
"F	c #F2D833",
"G	c #EFD010",
"H	c #736400",
"I	c #473D00",
"J	c #9B9A8C",
"K	c #A7A7A7",
"L	c #FFEA71",
"M	c #F4DA3F",
"N	c #403700",
"O	c #FFE331",
"P	c #F4D616",
"Q	c #F4D40C",
"R	c #D7D7D7",
"S	c #78776D",
"T	c #191603",
"U	c #181501",
"V	c #181400",
"W	c #A3A29D",
"X	c #777777",
"                                             .+++++++++++++++++++++++++++@                                            ",
"                                             .+++++++++++++++++++++++++++@                                            ",
"                                             .+++++++++++++++++++++++++++@                                            ",
"                                             .+++++++++++++++++++++++++++@                                            ",
"                                             .+++++++++++++++++++++++++++@                                            ",
"                                             .+++++++++++++++++++++++++++@                                            ",
"                                      #$$$%%%&***************************=$$$$$$                                      ",
"                                      -++++++;>>>>>>>>>>>>>>>>>>>>>>>>>>>,++++++'                                     ",
"                                      -++++++;>>>>>>>>>>>>>>>>>>>>>>>>>>>,++++++'                                     ",
"                                      -++++++;>>>>>>>>>>>>>>>>>>>>>>>>>>>,++++++'                                     ",
"                                      -++++++;>>>>>>>>>>>>>>>>>>>>>>>>>>>,++++++'                                     ",
"                                      -++++++;>>>>>>>>>>>>>>>>>>>>>>>>>>>,++++++'                                     ",
"                                      -++++++;>>>>>>>>>>>>>>>>>>>>>>>>>>>,++++++'                                     ",
"                                      -++++++;>>>>>>)!!!!!!~>>>>>>>>>>>>>,++++++'                                     ",
"                                      -++++++;>>>>>>{]]]]]]^>>>>>>>>>>>>>,++++++'                                     ",
"                                      -++++++;>>>>>>{]]]]]]^>>>>>>>>>>>>>,++++++'                                     ",
"                                      -++++++;>>>>>>{]]]]]]^>>>>>>>>>>>>>,++++++'                                     ",
"                                      -++++++;>>>>>>{]]]]]]^>>>>>>>>>>>>>,++++++'                                     ",
"                                      -++++++;>>>>>>{]]]]]]^>>>>>>>>>>>>>,++++++'                                     ",
"                                      /++++++;>>>>>>{]]]]]]^>>>>>>>>>>>>>,++++++(                                     ",
"                               _::::::<[[[[[[}||||||122222234444445>>>>>>6[[[[[[7:88888                               ",
"                               9++++++0>>>>>>a]]]]]]b>>>>>>cdddddde>>>>>>>>>>>>>f++++++g                              ",
"                               9++++++0>>>>>>a]]]]]]b>>>>>>cdddddde>>>>>>>>>>>>>f++++++g                              ",
"                               9++++++0>>>>>>a]]]]]]b>>>>>>cdddddde>>>>>>>>>>>>>f++++++g                              ",
"                               9++++++0>>>>>>a]]]]]]b>>>>>>cdddddde>>>>>>>>>>>>>f++++++g                              ",
"                               9++++++0>>>>>>a]]]]]]b>>>>>>cdddddde>>>>>>>>>>>>>f++++++g                              ",
"                               9++++++0>>>>>>a]]]]]]b>>>>>>cdddddde>>>>>>>>>>>>>f++++++g                              ",
"                               9++++++0>>>>>>a]]]]]]hiiiiiijdddddde>>>>>>>>>>>>>f++++++g                              ",
"                               9++++++0>>>>>>a]]]]]]kddddddddddddde>>>>>>>>>>>>>f++++++g                              ",
"                               9++++++0>>>>>>a]]]]]]kddddddddddddde>>>>>>>>>>>>>f++++++g                              ",
"                               9++++++0>>>>>>a]]]]]]kddddddddddddde>>>>>>>>>>>>>f++++++g                              ",
"                               9++++++0>>>>>>a]]]]]]kddddddddddddde>>>>>>>>>>>>>f++++++g                              ",
"                               9++++++0>>>>>>a]]]]]]kddddddddddddde>>>>>>>>>>>>>f++++++g                              ",
"                               9++++++0>>>>>>a]]]]]]kddddddddddddde>>>>>>>>>>>>>f++++++g                              ",
"                               9++++++0>>>>>>a]]]]]]l555555mdddddde>>>>>>>>>>>>>f++++++g                              ",
"                               9++++++0>>>>>>a]]]]]]b>>>>>>cdddddde>>>>>>>>>>>>>f++++++g                              ",
"                               9++++++0>>>>>>a]]]]]]b>>>>>>cdddddde>>>>>>>>>>>>>f++++++g                              ",
"                               9++++++0>>>>>>a]]]]]]b>>>>>>cdddddde>>>>>>>>>>>>>f++++++g                              ",
"                               9++++++0>>>>>>a]]]]]]b>>>>>>cdddddde>>>>>>>>>>>>>f++++++g                              ",
"                               n++++++0>>>>>>a]]]]]]b>>>>>>cdddddde>>>>>>>>>>>>>f++++++o                              ",
"                               n++++++0>>>>>>a]]]]]]b>>>>>>cdddddde>>>>>>>>>>>>>f++++++o                              ",
"                               n++++++0>>>>>>a]]]]]]pqqqqqqrdddddde>>>>>>>>>>>>>f++++++o                              ",
"                               n++++++0>>>>>>a]]]]]]kddddddddddddde>>>>>>>>>>>>>f++++++o                              ",
"                               n++++++0>>>>>>a]]]]]]kddddddddddddde>>>>>>>>>>>>>f++++++o                              ",
"                               n++++++0>>>>>>a]]]]]]kddddddddddddde>>>>>>>>>>>>>f++++++o                              ",
"                               n++++++0>>>>>>a]]]]]]kddddddddddddde>>>>>>>>>>>>>f++++++o                              ",
"                               n++++++0>>>>>>a]]]]]]kddddddddddddde>>>>>>>>>>>>>f++++++o                              ",
"                               n++++++0>>>>>>a]]]]]]sttttttddddddde>>>>>>>>>>>>>f++++++o                              ",
"                               n++++++0>>>>>>a]]]]]]b>>>>>>cddddddu]]]]]]]]]]]]]v++++++o                              ",
"                               n++++++0>>>>>>a]]]]]]b>>>>>>cddddddu]]]]]]]]]]]]]v++++++o                              ",
"                               n++++++0>>>>>>a]]]]]]b>>>>>>cddddddu]]]]]]]]]]]]]v++++++o                              ",
"                               n++++++0>>>>>>a]]]]]]b>>>>>>cddddddu]]]]]]]]]]]]]v++++++o                              ",
"                               n++++++0>>>>>>a]]]]]]b>>>>>>cddddddu]]]]]]]]]]]]]v++++++o                              ",
"                               n++++++0>>>>>>a]]]]]]b>>>>>>cddddddu]]]]]]]]]]]]]v++++++o                              ",
"                               n++++++0>>>>>>a]]]]]]b>>>>>>cddddddu]]]]]]]]]]]]]v++++++o                              ",
"                               n++++++0>>>>>>a]]]]]]b>>>>>>cddddddu]]]]]]]]]]]]]v++++++o                              ",
"                               n++++++0>>>>>>a]]]]]]b>>>>>>cddddddu]]]]]]]]]]]]]v++++++o                              ",
"                               n++++++0>>>>>>a]]]]]]b>>>>>>cddddddu]]]]]]]]]]]]]v++++++o                              ",
"                               n++++++0>>>>>>a]]]]]]b>>>>>>cddddddu]]]]]]]]]]]]]v++++++o                              ",
"                               9++++++0>>>>>>a]]]]]]b>>>>>>cddddddu]]]]]]]]]]]]]v++++++g                              ",
"                               9++++++0>>>>>>a]]]]]]b>>>>>>cddddddu]]]]]]]]]]]]]v++++++g                              ",
"                               9++++++0>>>>>>a]]]]]]b>>>>>>cddddddu]]]]]]]]]]]]]v++++++g                              ",
"                               9++++++0>>>>>>a]]]]]]b>>>>>>cddddddu]]]]]]]]]]]]]v++++++g                              ",
"                               9++++++0>>>>>>a]]]]]]b>>>>>>cddddddu]]]]]]]]]]]]]v++++++g                              ",
"                               9++++++0>>>>>>a]]]]]]b>>>>>>cddddddu]]]]]]]]]]]]]v++++++g                              ",
"                               9++++++0>>>>>>a]]]]]]b>>>>>>cddddddu]]]]]]]]]]]]]v++++++g                              ",
"                               9++++++0>>>>>>a]]]]]]b>>>>>>cddddddu]]]]]]]]]]]]]v++++++g                              ",
"                               9++++++0>>>>>>a]]]]]]b>>>>>>cddddddu]]]]]]]]]]]]]v++++++g                              ",
"                               9++++++0>>>>>>a]]]]]]|))))))wddddddu]]]]]]]]]]]]]v++++++g                              ",
"                               9++++++0>>>>>>a]]]]]]]]]]]]]xddddddu]]]]]]]]]]]]]v++++++g                              ",
"                               9++++++0>>>>>>a]]]]]]]]]]]]]xddddddu]]]]]]]]]]]]]v++++++g                              ",
"                               9++++++0>>>>>>a]]]]]]]]]]]]]xddddddu]]]]]]]]]]]]]v++++++g                              ",
"                               9++++++0>>>>>>a]]]]]]]]]]]]]xddddddu]]]]]]]]]]]]]v++++++g                              ",
"                               9++++++0>>>>>>a]]]]]]]]]]]]]xddddddu]]]]]]]]]]]]]v++++++g                              ",
"                               9++++++0>>>>>>a]]]]]]]]]]]]]xddddddu]]]]]]]]]]]]]v++++++g                              ",
"                               9++++++0>>>>>>a]]]]]]]]]]]]]xddddddu]]]]]]]]]]]]]v++++++g                              ",
"                               9++++++0>>>>>>a]]]]]]]]]]]]]xddddddu]]]]]]]]]]]]]v++++++g                              ",
"                               9++++++0>>>>>>a]]]]]]]]]]]]]xddddddu]]]]]]]]]]]]]v++++++g                              ",
"                               9++++++0>>>>>>a]]]]]]]]]]]]]xddddddu]]]]]]]]]]]]]v++++++g                              ",
"                               n++++++0>>>>>>a]]]]]]]]]]]]]xddddddu]]]]]]]]]]]]]v++++++o                              ",
"                               n++++++0>>>>>>a]]]]]]]]]]]]]xddddddu]]]]]]]]]]]]]v++++++o                              ",
"                               n++++++0>>>>>>a]]]]]]]]]]]]]xddddddu]]]]]]]]]]]]]v++++++o                              ",
"                               n++++++0>>>>>>a]]]]]]]]]]]]]xddddddu]]]]]]]]]]]]]v++++++o                              ",
"                               n++++++0>>>>>>a]]]]]]]]]]]]]xddddddu]]]]]]]]]]]]]v++++++o                              ",
"                               n++++++0>>>>>>a]]]]]]]]]]]]]xddddddu]]]]]]]]]]]]]v++++++o                              ",
"                               n++++++0>>>>>>a]]]]]]]]]]]]]xddddddu]]]]]]]]]]]]]v++++++o                              ",
"                               n++++++0>>>>>>a]]]]]]]]]]]]]xddddddu]]]]]]]]]]]]]v++++++o                              ",
"                               n++++++0>>>>>>a]]]]]]]]]]]]]xddddddu]]]]]]]]]]]]]v++++++o                              ",
"                               n++++++0>>>>>>a]]]]]]]]]]]]]xddddddu]]]]]]]]]]]]]v++++++o                              ",
"                               n++++++0>>>>>>a]]]]]]]]]]]]]xddddddu]]]]]]]]]]]]]v++++++o                              ",
"                               n++++++0>>>>>>a]]]]]]]]]]]]]xddddddu]]]]]]]]]]]]]v++++++o                              ",
"                               n++++++0>>>>>>a]]]]]]]]]]]]]xddddddu]]]]]]]]]]]]]v++++++o                              ",
"                               n++++++0>>>>>>a]]]]]]]]]]]]]xddddddu]]]]]]]]]]]]]v++++++o                              ",
"                               n++++++0>>>>>>a]]]]]]]]]]]]]xddddddu]]]]]]]]]]]]]v++++++o                              ",
"                               n++++++0>>>>>>a]]]]]]]]]]]]]xddddddu]]]]]]]]]]]]]v++++++o                              ",
"                               n++++++0>>>>>>a]]]]]]]]]]]]]xddddddu]]]]]]]]]]]]]v++++++o                              ",
"                                yyyyyyzAAAAAAB))))))CDDDDDDEFFFFFFG]]]]]]HIIIIIIJyKKKKK                               ",
"                                      -++++++;>>>>>>LddddddM]]]]]]]]]]]]]N++++++'                                     ",
"                                      -++++++;>>>>>>LddddddM]]]]]]]]]]]]]N++++++'                                     ",
"                                      /++++++;>>>>>>LddddddM]]]]]]]]]]]]]N++++++(                                     ",
"                                      /++++++;>>>>>>LddddddM]]]]]]]]]]]]]N++++++(                                     ",
"                                      /++++++;>>>>>>LddddddM]]]]]]]]]]]]]N++++++(                                     ",
"                                      /++++++;>>>>>>LddddddM]]]]]]]]]]]]]N++++++(                                     ",
"                                      /++++++;>>>>>>O555555P]]]]]]]]]]]]]N++++++(                                     ",
"                                      /++++++;>>>>>>>>>>>>>Q]]]]]]]]]]]]]N++++++(                                     ",
"                                      /++++++;>>>>>>>>>>>>>Q]]]]]]]]]]]]]N++++++(                                     ",
"                                      /++++++;>>>>>>>>>>>>>Q]]]]]]]]]]]]]N++++++(                                     ",
"                                      /++++++;>>>>>>>>>>>>>Q]]]]]]]]]]]]]N++++++(                                     ",
"                                      /++++++;>>>>>>>>>>>>>Q]]]]]]]]]]]]]N++++++(                                     ",
"                                      /++++++;>>>>>>>>>>>>>Q]]]]]]]]]]]]]N++++++(                                     ",
"                                       RRR   STTTTTTTTTTTTTUVVVVVVVVVVVVVWRRRRRR                                      ",
"                                             X+++++++++++++++++++++++++++_                                            ",
"                                             X+++++++++++++++++++++++++++_                                            ",
"                                             X+++++++++++++++++++++++++++_                                            ",
"                                             X+++++++++++++++++++++++++++_                                            ",
"                                             X+++++++++++++++++++++++++++_                                            ",
"                                             X+++++++++++++++++++++++++++_                                            "};
