/* XPM */
static xpm_row_t const coin2_xpm[] = {
"22 22 140 2",
"  	c None",
". 	c #625C3A",
"+ 	c #5E572C",
"@ 	c #5E5313",
"# 	c #8D897C",
"$ 	c #191704",
"% 	c #F3E379",
"& 	c #FFEE7F",
"* 	c #FFE441",
"= 	c #B7A114",
"- 	c #696969",
"; 	c #5B5B5B",
"> 	c #7B7447",
", 	c #EBDB73",
"' 	c #EFD125",
") 	c #EFD120",
"! 	c #FCDE20",
"~ 	c #F5D820",
"{ 	c #D3BB28",
"] 	c #3C3C3C",
"^ 	c #757575",
"/ 	c #A0975F",
"( 	c #CFBE58",
"_ 	c #F4DB4C",
": 	c #F8D91A",
"< 	c #F8D917",
"[ 	c #F5D612",
"} 	c #FADB1A",
"| 	c #F3D71F",
"1 	c #C4AD16",
"2 	c #696555",
"3 	c #4D4D4D",
"4 	c #BBAE5C",
"5 	c #FBE66B",
"6 	c #EDCD01",
"7 	c #FEE01F",
"8 	c #FFE54D",
"9 	c #FFE549",
"0 	c #FFE121",
"a 	c #F1D10A",
"b 	c #F6D714",
"c 	c #4A4004",
"d 	c #5C5A4F",
"e 	c #BEB05A",
"f 	c #FAE568",
"g 	c #EFCF04",
"h 	c #FEE12A",
"i 	c #FFE967",
"j 	c #FFED7B",
"k 	c #FFEC75",
"l 	c #FEE021",
"m 	c #F2D20B",
"n 	c #FEE020",
"o 	c #5C5004",
"p 	c #86847E",
"q 	c #040404",
"r 	c #E2D370",
"s 	c #F3DB51",
"t 	c #F2D30C",
"u 	c #FFE124",
"v 	c #FFED79",
"w 	c #FCE147",
"x 	c #FADA0B",
"y 	c #F5D505",
"z 	c #FDDE1C",
"A 	c #F6D715",
"B 	c #F1D20A",
"C 	c #F2D308",
"D 	c #9B8707",
"E 	c #3D3D3D",
"F 	c #000000",
"G 	c #E6D772",
"H 	c #F5DD53",
"I 	c #FFE125",
"J 	c #FFED7A",
"K 	c #FADA0A",
"L 	c #FDDF1D",
"M 	c #F1D109",
"N 	c #F6D609",
"O 	c #9E8902",
"P 	c #2A2A2A",
"Q 	c #404040",
"R 	c #323232",
"S 	c #D9CA6D",
"T 	c #EFD64E",
"U 	c #FEE022",
"V 	c #FFEC74",
"W 	c #FBE044",
"X 	c #F9D90A",
"Y 	c #F9D909",
"Z 	c #F6D608",
"` 	c #FCDD1B",
" .	c #E8CA08",
"..	c #988525",
"+.	c #444442",
"@.	c #BBA517",
"#.	c #FADC1B",
"$.	c #EECE01",
"%.	c #F8D912",
"&.	c #FFE120",
"*.	c #FDDE1D",
"=.	c #F6D505",
"-.	c #493E01",
";.	c #424242",
">.	c #BBA416",
",.	c #FBDC1B",
"'.	c #FEDF1E",
").	c #473C01",
"!.	c #988945",
"~.	c #C2AA14",
"{.	c #F7D815",
"].	c #F8D915",
"^.	c #EBCE13",
"/.	c #AB9401",
"(.	c #89867E",
"_.	c #939393",
":.	c #8B815A",
"<.	c #DFC51B",
"[.	c #EFD00B",
"}.	c #F0D004",
"|.	c #EFCF01",
"1.	c #FADB18",
"2.	c #EACD13",
"3.	c #C3AB2D",
"4.	c #ACACAC",
"5.	c #1B1704",
"6.	c #F3D61F",
"7.	c #F8D911",
"8.	c #AF9805",
"9.	c #5F5F5F",
"0.	c #403B27",
"a.	c #322A01",
"b.	c #312900",
"c.	c #82807C",
"d.	c #F8F8F8",
"e.	c #F7F7F7",
"f.	c #F6F6F6",
"g.	c #C7C7C7",
"h.	c #C6C6C6",
"i.	c #DBDBDB",
"                . + + + + @ #               ",
"              $ % & & & & * = -             ",
"          ; > , ' ) ) ) ) ! ~ { ]           ",
"        ^ / ( _ : < < < < [ } | 1 2         ",
"        3 4 5 6 7 * 8 9 0 a b 0 0 c         ",
"        d e f g h i j k l m b n 0 o p       ",
"      q r s t u v w x x y z A B 0 C D E     ",
"      F G H m I J w K K y L A M 0 N O F     ",
"      F G H m I J w K K y L A M 0 N O F     ",
"      F G H m I J w K K y L A M 0 N O F     ",
"      F G H m I J w K K y L A M 0 N O P     ",
"      F G H m I J w K K y L A M 0 N O Q     ",
"      F G H m I J w K K y L A M 0 N O Q     ",
"      F G H m I J w K K y L A M 0 N O Q     ",
"      R S T t U V W X Y Z ` b m 7  ...]     ",
"        +.@.#.$.l %.y Z &.B b *.=.-.        ",
"        ;.>.,.6 7 '.L L 0 a b L y ).        ",
"        ^ !.~.{.b b b b b b ].^./.(.        ",
"          _.:.<.[.}.|.|.|.1.2.3.;           ",
"            4.5.6.7.y y y y 8.9.            ",
"                0.a.b.b.b.b.c.              ",
"      d.e.e.e.f.g.h.h.g.g.g.i.      d.e.e.e."};
