/* XPM */
static xpm_row_t const coin4_xpm[] = {
"22 22 42 1",
" 	c None",
".	c #F6F6F6",
"+	c #F3F3F3",
"@	c #BBBBBB",
"#	c #B2B2B2",
"$	c #B7B7B7",
"%	c #BABABA",
"&	c #DCDCDC",
"*	c #F4F4F4",
"=	c #FBFBFB",
"-	c #4B4B4B",
";	c #403803",
">	c #5E5207",
",	c #5D5207",
"'	c #0A0800",
")	c #B59F15",
"!	c #FFE121",
"~	c #FEE021",
"{	c #2D2702",
"]	c #4C4C4C",
"^	c #383838",
"/	c #9F9F9F",
"(	c #343434",
"_	c #A4A4A4",
":	c #393939",
"<	c #B29C12",
"[	c #FCDD1D",
"}	c #FADC1C",
"|	c #2C2602",
"1	c #434343",
"2	c #A89100",
"3	c #EDCD00",
"4	c #ECCC00",
"5	c #292300",
"6	c #8D8D8D",
"7	c #464646",
"8	c #848484",
"9	c #353535",
"0	c #EBCC00",
"a	c #1E1900",
"b	c #2F2700",
"c	c #030200",
"                      ",
"        -;>,'         ",
"        -)!~{         ",
"        ])!~{         ",
"        ^)!~{/        ",
"        ()!~{_        ",
"        ()!~{_        ",
"        :)!~{/        ",
"        ])!~{         ",
"        -)!~{         ",
"        -<[}|         ",
"        123456        ",
"        (2345_        ",
"        (2345_        ",
"        (2345_        ",
"        723458        ",
"        -2345         ",
"        -2345         ",
"        -2345         ",
"        92345_        ",
"        (2305_        ",
"        (abbc_        "};
