/* XPM */
static xpm_row_t const coin1_xpm[] = {
"22 22 177 2",
"  	c None",
". 	c #181817",
"+ 	c #000000",
"@ 	c #A99D52",
"# 	c #FFEE7F",
"$ 	c #363114",
"% 	c #47453A",
"& 	c #E8D873",
"* 	c #EBDB75",
"= 	c #F2DF64",
"- 	c #FDE447",
"; 	c #FFE232",
"> 	c #ECD01F",
", 	c #EBCF1E",
"' 	c #C5AE28",
") 	c #373737",
"! 	c #808080",
"~ 	c #8B835A",
"{ 	c #C6B95F",
"] 	c #FCE65E",
"^ 	c #FFE756",
"/ 	c #FADF43",
"( 	c #F3D623",
"_ 	c #F4D511",
": 	c #FEE020",
"< 	c #FFE121",
"[ 	c #EDD11E",
"} 	c #C2AB1B",
"| 	c #535353",
"1 	c #8D8661",
"2 	c #BAAC53",
"3 	c #FEEA6B",
"4 	c #FDE33A",
"5 	c #FADD23",
"6 	c #F6D814",
"7 	c #F3D40E",
"8 	c #F9DA19",
"9 	c #FDDF1E",
"0 	c #FCDE20",
"a 	c #907E0E",
"b 	c #8F8872",
"c 	c #3A3A3A",
"d 	c #CCBE64",
"e 	c #FEEA6D",
"f 	c #FCE33E",
"g 	c #FEE021",
"h 	c #F2D30C",
"i 	c #F6D714",
"j 	c #FFE122",
"k 	c #FFE22C",
"l 	c #FFE229",
"m 	c #EFCF05",
"n 	c #F8DA18",
"o 	c #8A790D",
"p 	c #0A0A0A",
"q 	c #FFEA68",
"r 	c #EECE01",
"s 	c #FADC1B",
"t 	c #FFE337",
"u 	c #FFEE7D",
"v 	c #FFEB6E",
"w 	c #F4D510",
"x 	c #F3D410",
"y 	c #2D2D2D",
"z 	c #494948",
"A 	c #D7C86C",
"B 	c #F2DD5D",
"C 	c #F9DF43",
"D 	c #FBDC1B",
"E 	c #FFE64E",
"F 	c #FEE968",
"G 	c #FBDF3F",
"H 	c #FADD37",
"I 	c #F7D80F",
"J 	c #FFE020",
"K 	c #FCDE1E",
"L 	c #FCE146",
"M 	c #E8CD1D",
"N 	c #B4A031",
"O 	c #565656",
"P 	c #0D0C04",
"Q 	c #F4E379",
"R 	c #FEE656",
"S 	c #F8DB28",
"T 	c #EECE03",
"U 	c #FFE120",
"V 	c #FFE758",
"W 	c #FEEB74",
"X 	c #FADA0A",
"Y 	c #F9D909",
"Z 	c #F5D505",
"` 	c #FFE550",
" .	c #FEDF19",
"..	c #C2A90E",
"+.	c #2F2F2F",
"@.	c #FFE64F",
"#.	c #FDDC0D",
"$.	c #C0A600",
"%.	c #242424",
"&.	c #0D0D0D",
"*.	c #3E3E3C",
"=.	c #C3B764",
"-.	c #ECD33F",
";.	c #F9DA18",
">.	c #FDDF1F",
",.	c #FFE548",
"'.	c #FEE75E",
").	c #F8D808",
"!.	c #F8D90B",
"~.	c #F9D912",
"{.	c #FFE443",
"].	c #FFE965",
"^.	c #D7BB08",
"/.	c #A48E1D",
"(.	c #C9B117",
"_.	c #FDDF20",
":.	c #FEE01F",
"<.	c #EFCF04",
"[.	c #FADB19",
"}.	c #FEDF1E",
"|.	c #F6D608",
"1.	c #F8D910",
"2.	c #FFE22D",
"3.	c #FCDA00",
"4.	c #887500",
"5.	c #5C5C5C",
"6.	c #353535",
"7.	c #CCB418",
"8.	c #F2D20B",
"9.	c #F5D613",
"0.	c #FFED7A",
"a.	c #FFE652",
"b.	c #686868",
"c.	c #776E4C",
"d.	c #AC9714",
"e.	c #FCDE1D",
"f.	c #FDE44E",
"g.	c #FFEB71",
"h.	c #FFE442",
"i.	c #FFE22E",
"j.	c #FEDF1B",
"k.	c #F9D809",
"l.	c #6C5D00",
"m.	c #716A54",
"n.	c #8C8156",
"o.	c #B5A015",
"p.	c #FDDF21",
"q.	c #FFE441",
"r.	c #FFE75C",
"s.	c #FFE75B",
"t.	c #FEDE1C",
"u.	c #FDDD14",
"v.	c #E6C90F",
"w.	c #AE970B",
"x.	c #696969",
"y.	c #A4A4A4",
"z.	c #67655E",
"A.	c #DCC21E",
"B.	c #DFC51C",
"C.	c #ECD01C",
"D.	c #FEDF1C",
"E.	c #FDDE1C",
"F.	c #DEC002",
"G.	c #DCBE00",
"H.	c #BFA73D",
"I.	c #656565",
"J.	c #191919",
"K.	c #050506",
"L.	c #A68F03",
"M.	c #FAD800",
"N.	c #F5D400",
"O.	c #342D05",
"P.	c #7D7D7D",
"Q.	c #73716B",
"R.	c #332A00",
"S.	c #322A00",
"T.	c #322A04",
"                                            ",
"          . + @ # # # # # # $ + +           ",
"        % & * = - ; ; ; ; ; > , ' )         ",
"    ! ~ { ] ^ / ( _ _ _ _ _ : < [ } |       ",
"    1 2 3 4 5 6 7 7 7 7 7 7 8 9 < 0 a b     ",
"  c d e f g h i j k k k l < m n : < < o p   ",
"  c d q : r s < t u u u v < < w x < < o y   ",
"z A B C h D : E F G G G H I J K L v < M N O ",
"P Q R S T U < V W X X X Y Z : < ` u <  ...+.",
"P Q @.8 T U < V W X X X Y Z : < ` u < #.$.+.",
"P Q @.8 T U < V W X X X Y Z : < ` u < #.$.%.",
"P Q @.8 T U < V W X X X Y Z : < ` u < #.$.&.",
"P Q @.8 T U < V W X X X Y Z : < ` u < #.$.&.",
"*.=.-.s w ;.>.,.'.).).).!.~.U {.V ]. .^./.c ",
"  ) (._.:.<.[.: }.|.|.|.1.< 2.].].U 3.4.5.  ",
"  6.7.< < < 8.9.< < < < < < 0.a.j U 3.4.b.  ",
"    c.d.< < e.f.g.g.g.g.g.g.h.i.j.k.l.m.    ",
"      n.o.p.< q.r.r.r.r.r.s.t.u.v.w.x.      ",
"      y.z.A.B.C.D.D.D.D.D.E.F.G.H.I.        ",
"          J.K.L.3.3.3.3.M.N.O.K.P.          ",
"              Q.R.R.R.R.S.T.                ",
"                                            "};
