/* XPM */
static char * 420_4201833_coins_clipart_sprite_coin_sprite_sheet_png_transparent_xpm[] = {
"22 22 181 2",
"  	c None",
". 	c #828074",
"+ 	c #5E572C",
"@ 	c #5E582C",
"# 	c #B2B2B1",
"$ 	c #181817",
"% 	c #000000",
"& 	c #A99D52",
"* 	c #FFEE7F",
"= 	c #363114",
"- 	c #47453A",
"; 	c #E8D873",
"> 	c #EBDB75",
", 	c #F2DF64",
"' 	c #FDE447",
") 	c #FFE232",
"! 	c #ECD01F",
"~ 	c #EBCF1E",
"{ 	c #C5AE28",
"] 	c #373737",
"^ 	c #808080",
"/ 	c #8B835A",
"( 	c #C6B95F",
"_ 	c #FCE65E",
": 	c #FFE756",
"< 	c #FADF43",
"[ 	c #F3D623",
"} 	c #F4D511",
"| 	c #FEE020",
"1 	c #FFE121",
"2 	c #EDD11E",
"3 	c #C2AB1B",
"4 	c #535353",
"5 	c #8D8661",
"6 	c #BAAC53",
"7 	c #FEEA6B",
"8 	c #FDE33A",
"9 	c #FADD23",
"0 	c #F6D814",
"a 	c #F3D40E",
"b 	c #F9DA19",
"c 	c #FDDF1E",
"d 	c #FCDE20",
"e 	c #907E0E",
"f 	c #8F8872",
"g 	c #3A3A3A",
"h 	c #CCBE64",
"i 	c #FEEA6D",
"j 	c #FCE33E",
"k 	c #FEE021",
"l 	c #F2D30C",
"m 	c #F6D714",
"n 	c #FFE122",
"o 	c #FFE22C",
"p 	c #FFE229",
"q 	c #EFCF05",
"r 	c #F8DA18",
"s 	c #8A790D",
"t 	c #0A0A0A",
"u 	c #FFEA68",
"v 	c #EECE01",
"w 	c #FADC1B",
"x 	c #FFE337",
"y 	c #FFEE7D",
"z 	c #FFEB6E",
"A 	c #F4D510",
"B 	c #F3D410",
"C 	c #2D2D2D",
"D 	c #494948",
"E 	c #D7C86C",
"F 	c #F2DD5D",
"G 	c #F9DF43",
"H 	c #FBDC1B",
"I 	c #FFE64E",
"J 	c #FEE968",
"K 	c #FBDF3F",
"L 	c #FADD37",
"M 	c #F7D80F",
"N 	c #FFE020",
"O 	c #FCDE1E",
"P 	c #FCE146",
"Q 	c #E8CD1D",
"R 	c #B4A031",
"S 	c #565656",
"T 	c #0D0C04",
"U 	c #F4E379",
"V 	c #FEE656",
"W 	c #F8DB28",
"X 	c #EECE03",
"Y 	c #FFE120",
"Z 	c #FFE758",
"` 	c #FEEB74",
" .	c #FADA0A",
"..	c #F9D909",
"+.	c #F5D505",
"@.	c #FFE550",
"#.	c #FEDF19",
"$.	c #C2A90E",
"%.	c #2F2F2F",
"&.	c #FFE64F",
"*.	c #FDDC0D",
"=.	c #C0A600",
"-.	c #242424",
";.	c #0D0D0D",
">.	c #3E3E3C",
",.	c #C3B764",
"'.	c #ECD33F",
").	c #F9DA18",
"!.	c #FDDF1F",
"~.	c #FFE548",
"{.	c #FEE75E",
"].	c #F8D808",
"^.	c #F8D90B",
"/.	c #F9D912",
"(.	c #FFE443",
"_.	c #FFE965",
":.	c #D7BB08",
"<.	c #A48E1D",
"[.	c #C9B117",
"}.	c #FDDF20",
"|.	c #FEE01F",
"1.	c #EFCF04",
"2.	c #FADB19",
"3.	c #FEDF1E",
"4.	c #F6D608",
"5.	c #F8D910",
"6.	c #FFE22D",
"7.	c #FCDA00",
"8.	c #887500",
"9.	c #5C5C5C",
"0.	c #353535",
"a.	c #CCB418",
"b.	c #F2D20B",
"c.	c #F5D613",
"d.	c #FFED7A",
"e.	c #FFE652",
"f.	c #686868",
"g.	c #776E4C",
"h.	c #AC9714",
"i.	c #FCDE1D",
"j.	c #FDE44E",
"k.	c #FFEB71",
"l.	c #FFE442",
"m.	c #FFE22E",
"n.	c #FEDF1B",
"o.	c #F9D809",
"p.	c #6C5D00",
"q.	c #716A54",
"r.	c #8C8156",
"s.	c #B5A015",
"t.	c #FDDF21",
"u.	c #FFE441",
"v.	c #FFE75C",
"w.	c #FFE75B",
"x.	c #FEDE1C",
"y.	c #FDDD14",
"z.	c #E6C90F",
"A.	c #AE970B",
"B.	c #696969",
"C.	c #A4A4A4",
"D.	c #67655E",
"E.	c #DCC21E",
"F.	c #DFC51C",
"G.	c #ECD01C",
"H.	c #FEDF1C",
"I.	c #FDDE1C",
"J.	c #DEC002",
"K.	c #DCBE00",
"L.	c #BFA73D",
"M.	c #656565",
"N.	c #191919",
"O.	c #050506",
"P.	c #A68F03",
"Q.	c #FAD800",
"R.	c #F5D400",
"S.	c #342D05",
"T.	c #7D7D7D",
"U.	c #73716B",
"V.	c #332A00",
"W.	c #322A00",
"X.	c #322A04",
"              . + + + + + @ #               ",
"          $ % & * * * * * * = % %           ",
"        - ; > , ' ) ) ) ) ) ! ~ { ]         ",
"    ^ / ( _ : < [ } } } } } | 1 2 3 4       ",
"    5 6 7 8 9 0 a a a a a a b c 1 d e f     ",
"  g h i j k l m n o o o p 1 q r | 1 1 s t   ",
"  g h u | v w 1 x y y y z 1 1 A B 1 1 s C   ",
"D E F G l H | I J K K K L M N O P z 1 Q R S ",
"T U V W X Y 1 Z `  . . ...+.| 1 @.y 1 #.$.%.",
"T U &.b X Y 1 Z `  . . ...+.| 1 @.y 1 *.=.%.",
"T U &.b X Y 1 Z `  . . ...+.| 1 @.y 1 *.=.-.",
"T U &.b X Y 1 Z `  . . ...+.| 1 @.y 1 *.=.;.",
"T U &.b X Y 1 Z `  . . ...+.| 1 @.y 1 *.=.;.",
">.,.'.w A ).!.~.{.].].].^./.Y (.Z _.#.:.<.g ",
"  ] [.}.|.1.2.| 3.4.4.4.5.1 6._._.Y 7.8.9.  ",
"  0.a.1 1 1 b.c.1 1 1 1 1 1 d.e.n Y 7.8.f.  ",
"    g.h.1 1 i.j.k.k.k.k.k.k.l.m.n.o.p.q.    ",
"      r.s.t.1 u.v.v.v.v.v.w.x.y.z.A.B.      ",
"      C.D.E.F.G.H.H.H.H.H.I.J.K.L.M.        ",
"          N.O.P.7.7.7.7.Q.R.S.O.T.          ",
"              U.V.V.V.V.W.X.                ",
"                                            "};
