/* XPM */
static xpm_row_t const coin3_xpm[] = {
"22 22 79 1",
" 	c None",
".	c #3E3E3E",
"+	c #000000",
"@	c #606060",
"#	c #A69433",
"$	c #DBC11B",
"%	c #B9A537",
"&	c #5A5A5A",
"*	c #B6A015",
"=	c #FDDF1F",
"-	c #F7D816",
";	c #FEE020",
">	c #FFE121",
",	c #CFB619",
"'	c #665D38",
")	c #BFA814",
"!	c #F9DB19",
"~	c #F0D108",
"{	c #FEE244",
"]	c #FFE232",
"^	c #D5BC1A",
"/	c #695F37",
"(	c #E3C81D",
"_	c #F6D714",
":	c #F1D209",
"<	c #FFE123",
"[	c #FFF0A3",
"}	c #FFE76B",
"|	c #F6D920",
"1	c #000001",
"2	c #F1D545",
"3	c #FFEF9F",
"4	c #FFF1AA",
"5	c #F1D331",
"6	c #FFE875",
"7	c #FFF0A6",
"8	c #F1D327",
"9	c #FFE661",
"0	c #FFF0A5",
"a	c #F1D64B",
"b	c #FFF1AB",
"c	c #F1D20F",
"d	c #FFE22F",
"e	c #F4DB66",
"f	c #EECE01",
"g	c #E5C601",
"h	c #F1D20A",
"i	c #FFE124",
"j	c #F4DB65",
"k	c #EDCD00",
"l	c #E5C600",
"m	c #F1D109",
"n	c #FEE022",
"o	c #FFF0A2",
"p	c #EDCD07",
"q	c #FEEEA1",
"r	c #EDCD05",
"s	c #59533D",
"t	c #BBA514",
"u	c #FDE24E",
"v	c #FDED9E",
"w	c #F0D335",
"x	c #EECE17",
"y	c #C3A900",
"z	c #544D37",
"A	c #393939",
"B	c #FFE23B",
"C	c #FFE770",
"D	c #EECF12",
"E	c #C0A600",
"F	c #666666",
"G	c #A69223",
"H	c #D8BE1A",
"I	c #CAAE02",
"J	c #C8AD00",
"K	c #AE993F",
"L	c #737373",
"M	c #434343",
"N	c #595959",
"        .++++@        ",
"       @#$$$$%&       ",
"       .*=-;>,.       ",
"       ')!~{]^/       ",
"      +(_:<[}>|+      ",
"      1(_234}>|1      ",
"      1(_567}>|1      ",
"      1(_890}>|1      ",
"      1(_abb}>|1      ",
"      1(_cd[efg+      ",
"      1(_hi[jkl+      ",
"      1(_hi[jkl+      ",
"      1(_mnojkl+      ",
"      1(_kpqjkl+      ",
"      1(_kpqjkl+      ",
"      1(_kpqjkl+      ",
"      1(_kpqjkl+      ",
"      +(_krqjkl+      ",
"       stuvwxyz       ",
"       A*BCDkEA       ",
"       FGHHIJKL       ",
"        M++++N        "};
