/* XPM */
static char * 0_xpm[] = {
"14 21 40 1",
" 	c None",
".	c #ECEDEC",
"+	c #F9FAF9",
"@	c #F9F9F9",
"#	c #EDEDED",
"$	c #FDFDFD",
"%	c #FAFAFA",
"&	c #F6F6F6",
"*	c #FCFCFC",
"=	c #F7F7F7",
"-	c #F0F1F0",
";	c #F0F1F1",
">	c #F8F8F8",
",	c #F0F0F0",
"'	c #FBFBFB",
")	c #ECEDED",
"!	c #EFEFEF",
"~	c #F2F2F2",
"{	c #F6F7F6",
"]	c #FAFBFA",
"^	c #E4E5E4",
"/	c #F1F2F2",
"(	c #EAEBEA",
"_	c #F4F4F4",
":	c #EDEEED",
"<	c #F4F5F4",
"[	c #F3F3F2",
"}	c #F7F8F7",
"|	c #EFF0F0",
"1	c #E7E8E7",
"2	c #E8E9E8",
"3	c #F5F5F5",
"4	c #F3F3F3",
"5	c #E9E9E9",
"6	c #E8E8E8",
"7	c #F9FAFA",
"8	c #F4F5F5",
"9	c #F8F9F8",
"0	c #F3F4F3",
"a	c #F1F1F1",
"     .+@#     ",
"    @$$$$%&   ",
"   **=  -*$;  ",
"  >$,     *'  ",
" )$'      !$> ",
" ~${       *@ ",
" *$        @' ",
" *$        '$ ",
" $]        *$^",
" $>        /$(",
" $_        :$<",
" $<        [$<",
" $}        %$|",
" $'        $$1",
" *$        @$ ",
" *$2       '% ",
" 3$_      4$& ",
" 5$$6     7$: ",
"  ~$=(   3$8  ",
"   9$$%'$$>   ",
"    0'**9a    "};
