/* XPM */
static char * 1_xpm[] = {
"14 22 17 1",
" 	c None",
".	c #E9EAE9",
"+	c #EFF0EF",
"@	c #F1F2F1",
"#	c #FCFCFC",
"$	c #F8F9F8",
"%	c #F5F5F5",
"&	c #FBFBFB",
"*	c #FDFDFD",
"=	c #F6F6F6",
"-	c #FAFAFA",
";	c #EBECEB",
">	c #F0F0F0",
",	c #D7D8D7",
"'	c #EEEEEE",
")	c #EDEDED",
"!	c #E9E9E9",
"        .+    ",
"       @#$    ",
"     %&**$    ",
"   =&*-;*$    ",
"   *&> ,*$    ",
"   '   ,*$    ",
"       ,*$    ",
"       ,*$    ",
"       ,*$    ",
"       ,*$    ",
"       ,*$    ",
"       ,*$    ",
"       ,*$    ",
"       ,*$    ",
"       ,*$    ",
"       ,*$    ",
"       ,*$    ",
"       ,*$    ",
"       ,*$    ",
"       ,*$    ",
"        )!    ",
"              "};
