/* XPM */
static char * 2_xpm[] = {
"14 22 29 1",
" 	c None",
".	c #EBECEC",
"+	c #F8F8F8",
"@	c #FDFDFD",
"#	c #FCFCFC",
"$	c #EEEFEF",
"%	c #EEEEEE",
"&	c #FBFBFB",
"*	c #F2F3F2",
"=	c #FAFAFA",
"-	c #F7F7F7",
";	c #EDEEED",
">	c #E7E7E6",
",	c #F6F6F6",
"'	c #D5D5D5",
")	c #F9F9F9",
"!	c #F7F7F6",
"~	c #F5F5F3",
"{	c #FBFBFA",
"]	c #EEEFEE",
"^	c #EFEFEF",
"/	c #F4F4F4",
"(	c #F1F2F1",
"_	c #F5F5F5",
":	c #F4F5F5",
"<	c #E9E9E9",
"[	c #FAFAF9",
"}	c #ECECEC",
"|	c #EDEDED",
"    .+@#$     ",
"  %&@@@@@#*   ",
"  @=-   -#@;  ",
" >,      '@#  ",
"          )@  ",
"          !@  ",
"          ~@  ",
"          {@  ",
"         ]@+  ",
"         +@^  ",
"        /@-   ",
"       #@-    ",
"     (##^     ",
"    -@+       ",
"   _@:        ",
"  _@]         ",
" <#-          ",
" [@           ",
" &@           ",
" &@@@@@@@@@@# ",
" }||||||||||} ",
"              "};
