/* XPM */
static xpm_row_t const 3_xpm[] = {
"14 22 41 1",
" 	c None",
".	c #EAEBEB",
"+	c #F7F7F7",
"@	c #FDFDFD",
"#	c #F1F1F1",
"$	c #F4F4F2",
"%	c #FBFBFB",
"&	c #FCFCFC",
"*	c #F7F8F8",
"=	c #FCFCF9",
"-	c #F5F6F5",
";	c #EFEFEF",
">	c #F6F6F5",
",	c #FDFDFC",
"'	c #F5F5F5",
")	c #F1F0EF",
"!	c #FAFAFA",
"~	c #EAEBEA",
"{	c #F9F9F8",
"]	c #FCFCFB",
"^	c #F9FAFA",
"/	c #E0E0DD",
"(	c #E9EAE9",
"_	c #EDEEED",
":	c #F0F0F0",
"<	c #E7E7E3",
"[	c #F4F5F5",
"}	c #D9DAD9",
"|	c #EBEBEB",
"1	c #EDEDED",
"2	c #F2F2F1",
"3	c #F3F3F3",
"4	c #FAF9F8",
"5	c #F9F9F9",
"6	c #FBFCFB",
"7	c #EDEEEB",
"8	c #F6F6F6",
"9	c #FAF8F1",
"0	c #F3F4F3",
"a	c #F6F7F6",
"b	c #EEEFEE",
"    .+@@#     ",
"  $%@@@@@&*   ",
"  =-;   >,@'  ",
"         )@%  ",
"          !@~ ",
"          {@  ",
"          ]%  ",
"         .@'  ",
"         %^   ",
"   /(_*@%:    ",
"   <@@@@*[    ",
"    } |12@!'  ",
"         3&@  ",
"          4@5 ",
"           @6 ",
"           && ",
"          7@+ ",
"          8@+ ",
" 90      '&5  ",
" 9@@a!@!!@+   ",
"  #8@&%&8b    ",
"              "};
