/* XPM */
static char * 4_xpm[] = {
"14 22 30 1",
" 	c None",
".	c #E3E4E3",
"+	c #F5F6F5",
"@	c #FDFDFD",
"#	c #FCFCFC",
"$	c #F6F6F6",
"%	c #EEEEEE",
"&	c #F4F3EF",
"*	c #FDFDFC",
"=	c #FBFBFB",
"-	c #F8F8F8",
";	c #E0DED6",
">	c #F4F5F4",
",	c #EBECEB",
"'	c #E9EAEA",
")	c #F6F7F6",
"!	c #E8E9E9",
"~	c #F2F2F2",
"{	c #EDEEED",
"]	c #F7F8F7",
"^	c #F9F9F9",
"/	c #EAEAEA",
"(	c #F8F8F6",
"_	c #FAFAFA",
":	c #F7F7F7",
"<	c #F5F5F0",
"[	c #F5F5F5",
"}	c #DEDCD4",
"|	c #ECECEC",
"1	c #EDEDED",
"          ..  ",
"         +@@  ",
"         #@@  ",
"        $@@@  ",
"       %@&*@  ",
"       =-;#@  ",
"      >@, #@  ",
"     '@$  #@  ",
"     ==   #@  ",
"    )@!   #@  ",
"   ~@$    #@  ",
"  {@]     #@  ",
"  =^      #@  ",
" -@/      #@  ",
"(@@_:::::-@@=:",
"<[[[[[[[[$@@:[",
"         }#@  ",
"          #@  ",
"          #@  ",
"          #@  ",
"          |1  ",
"              "};
