/* XPM */
static xpm_row_t const number_5_xpm[] = {
"14 22 45 1",
" 	c None",
".	c #E3E3E2",
"+	c #E3E4E3",
"@	c #FAFAF8",
"#	c #FDFDFD",
"$	c #FBFBF9",
"%	c #FBFBFB",
"&	c #F3F3F3",
"*	c #FDFCFA",
"=	c #FAFAFA",
"-	c #FDFDFB",
";	c #E5E5DD",
">	c #FDFDFC",
",	c #E4E4DC",
"'	c #F9F9F9",
")	c #EBEAE2",
"!	c #F3F4F4",
"~	c #F2F1E9",
"{	c #F6F7F7",
"]	c #EDEEED",
"^	c #F6F6EE",
"/	c #FCFCFC",
"(	c #EFF0EF",
"_	c #EFEEE7",
":	c #F0F0F0",
"<	c #EFEFEF",
"[	c #F2F2F2",
"}	c #F4F4F3",
"|	c #F8F9F9",
"1	c #F3F2F1",
"2	c #F5F5F5",
"3	c #F2F1EF",
"4	c #FDFCFC",
"5	c #FCFBFB",
"6	c #E0E1E0",
"7	c #FCFCFB",
"8	c #F1F2F0",
"9	c #F6F5F1",
"0	c #F1F1F1",
"a	c #FCFBF7",
"b	c #F8F8F8",
"c	c #F1F0EE",
"d	c #F6F6F6",
"e	c #F7F8F7",
"f	c #EFF0F0",
"  .++++++++   ",
"  @########   ",
"  $%&         ",
"  *=          ",
"  -#          ",
" ;>#          ",
" ,#'          ",
" )#!          ",
" ~#{ ]        ",
" ^#####/%(    ",
" _:< [}=##|   ",
"        1/#2  ",
"         3#=  ",
"          4#  ",
"          5#6 ",
"          7#  ",
"         8#=  ",
"         %#&  ",
" 9      0#=   ",
" a#bb#==#b    ",
" cd#/%/ef     ",
"              "};
