/* XPM */
static xpm_row_t const number_6_xpm[] = {
"14 22 56 1",
" 	c None",
".	c #F1F2F2",
"+	c #FDFDFD",
"@	c #F9F9F9",
"#	c #EBECEB",
"$	c #C9CAC9",
"%	c #EFEFEF",
"&	c #FBFBFB",
"*	c #E7E8E7",
"=	c #F7F8F7",
"-	c #EDEEED",
";	c #F0F0EF",
">	c #E6E6E5",
",	c #FAFAFA",
"'	c #F2F2F2",
")	c #F5F6F6",
"!	c #F3F3F3",
"~	c #FCFCFC",
"{	c #ECEDEB",
"]	c #F6F6F6",
"^	c #FBFBF8",
"/	c #EBEBEB",
"(	c #FAFAF8",
"_	c #F0F0F0",
":	c #F0F1F0",
"<	c #FCFCFB",
"[	c #EFF0F0",
"}	c #EEEFEE",
"|	c #FDFDFB",
"1	c #F8F8F8",
"2	c #FDFDFC",
"3	c #E6E4DB",
"4	c #FAFBFB",
"5	c #E4E5E4",
"6	c #F1EFED",
"7	c #E7E4DC",
"8	c #FDFCFB",
"9	c #FAF7F4",
"0	c #E8E9E8",
"a	c #FCFBF9",
"b	c #F6F5F1",
"c	c #EAEAEA",
"d	c #FAF8F6",
"e	c #E9EAE9",
"f	c #F7F7F4",
"g	c #F4EFEB",
"h	c #F7F7F7",
"i	c #EEECEA",
"j	c #E5E5E5",
"k	c #F3F2F2",
"l	c #F6F7F6",
"m	c #F4F4F4",
"n	c #FBFCFC",
"o	c #F5F5F5",
"p	c #ECECEB",
"q	c #F8F7F7",
"       .++@#  ",
"    $%&+++++* ",
"    &+=-   ;> ",
"   ,+'        ",
"  )+!         ",
"  ~&          ",
" {+]          ",
" ^+/          ",
" (+   _,+:    ",
" <~ [&~+~+~}  ",
" |~1~'   !2+[ ",
"32+45     6+& ",
"72+'       8+ ",
" 8+        9+0",
" a+        b+c",
" d+e       f+%",
" g+h       <+ ",
"  <~      .+h ",
"  i+~    j+~e ",
"   k+~l+m~no  ",
"    pq+&&'    ",
"              "};
