/* XPM */
static xpm_row_t const number_7_xpm[] = {
"14 22 34 1",
" 	c None",
".	c #E3E3E1",
"+	c #E3E4E3",
"@	c #E2E3E2",
"#	c #FCFBF8",
"$	c #FDFDFD",
"%	c #F4F4F4",
"&	c #F5F5F5",
"*	c #FCFCFC",
"=	c #F1F2F2",
"-	c #F0F1F0",
";	c #F9F9F9",
">	c #F9FAFA",
",	c #EBEBEB",
"'	c #FAFAFA",
")	c #EEEEEE",
"!	c #F5F6F6",
"~	c #F7F7F7",
"{	c #EBECEC",
"]	c #EAEBEA",
"^	c #FBFBFB",
"/	c #F5F6F5",
"(	c #FBFBFA",
"_	c #EBECEB",
":	c #F0F1ED",
"<	c #F5F6F3",
"[	c #F0F0F0",
"}	c #FDFDFB",
"|	c #F1F1F1",
"1	c #F1F2E8",
"2	c #EFEFE8",
"3	c #F9F9F2",
"4	c #EBECE7",
"5	c #EDEDED",
" .+++++++++++@",
" #$$$$$$$$$$$%",
"          &*$=",
"          -$; ",
"          >$, ",
"         &$;  ",
"         '$)  ",
"        !$~   ",
"        '${   ",
"       -$;    ",
"       ;$&    ",
"      ]$^     ",
"      /$~     ",
"      ($_     ",
"     :$*      ",
"     <$[      ",
"     }$|      ",
"    1$$       ",
"    2$~       ",
"    3$%       ",
"    45_       ",
"              "};
