/* XPM */
static char * 8_xpm[] = {
"14 22 56 1",
" 	c None",
".	c #F3F3F3",
"+	c #FCFCFC",
"@	c #FDFDFD",
"#	c #F1F1F1",
"$	c #EEEFEE",
"%	c #FAFAFA",
"&	c #F4F5F5",
"*	c #F8F8F8",
"=	c #FBFBFB",
"-	c #F4F3F2",
";	c #FBFBFA",
">	c #F4F4F4",
",	c #F1F1EF",
"'	c #E7E4E0",
")	c #FDFCFC",
"!	c #FBFAF3",
"~	c #FBF7F3",
"{	c #F8F5EE",
"]	c #F5F5F5",
"^	c #F9F5ED",
"/	c #F8F1EA",
"(	c #FCFCF7",
"_	c #F4F5F4",
":	c #FBFCFB",
"<	c #F2F2F2",
"[	c #E7E4E2",
"}	c #ECEDED",
"|	c #EBECEB",
"1	c #F9F9F9",
"2	c #FCFDFC",
"3	c #E8E9E9",
"4	c #E9E9E9",
"5	c #EFF0F0",
"6	c #F6F7F6",
"7	c #F1EFEF",
"8	c #F3F4F3",
"9	c #F5F3F1",
"0	c #F6F6F6",
"a	c #F0F1EB",
"b	c #E7DFD7",
"c	c #FDFDFC",
"d	c #F6F6ED",
"e	c #FDFBF7",
"f	c #F6F2E9",
"g	c #FDFDF8",
"h	c #FAF1E8",
"i	c #EDEDE9",
"j	c #FBFAF9",
"k	c #FAFBFA",
"l	c #EFECEA",
"m	c #F1F2F1",
"n	c #EEEDEC",
"o	c #F5F6F6",
"p	c #F5F6F5",
"q	c #F2F3F2",
"     .+@#     ",
"   $%@@@@+&   ",
"  *@=.  -;@>  ",
" ,@=     ')@  ",
" !@%      ~@+ ",
" {@]      ^@* ",
" /@%      (@_ ",
"  =:     <@%  ",
"  [++}   =+|  ",
"    1@%=@23   ",
"   4+%++%@]   ",
" 5++6    7@+  ",
" %@8      9@0 ",
"a@=       bc@ ",
"d@+        e@%",
"f@+        g@1",
"h@=       i@@ ",
" j@<      0@k ",
" l@+]    >@@m ",
"  n@@%o+%@+p  ",
"    <+@=+q    ",
"              "};
