/* XPM */
static xpm_row_t const 9_xpm[] = {
"14 22 62 1",
" 	c None",
".	c #DCDCDC",
"+	c #F6F7F7",
"@	c #FDFDFD",
"#	c #F8F9F8",
"$	c #E6E7E7",
"%	c #EDEDED",
"&	c #F9F9F9",
"*	c #F6F7F6",
"=	c #F5F6F5",
"-	c #FCFCFC",
";	c #F5F5F5",
">	c #F1F0F0",
",	c #F7F7F6",
"'	c #EEEFEE",
")	c #EFEFEF",
"!	c #F7F6F5",
"~	c #F6F6F6",
"{	c #F7F8F5",
"]	c #EAE4DE",
"^	c #FDFCFC",
"/	c #FBFBFB",
"(	c #FCFCF8",
"_	c #EAEBEA",
":	c #FBF9F7",
"<	c #EBECEB",
"[	c #FCFCFB",
"}	c #E0E1E0",
"|	c #F9F5F0",
"1	c #EEEFEF",
"2	c #E4E5E5",
"3	c #F8F7EF",
"4	c #FBF8F4",
"5	c #FBFBF8",
"6	c #F3EDE8",
"7	c #F9FAFA",
"8	c #F3F3F3",
"9	c #FBFAFA",
"0	c #FAFAFA",
"a	c #F8F8F8",
"b	c #FDFCFB",
"c	c #E9E6E4",
"d	c #F2F2F2",
"e	c #FBF8EE",
"f	c #F2F1F1",
"g	c #F0F1F0",
"h	c #FBFAF0",
"i	c #F0F1F1",
"j	c #F9F9F4",
"k	c #FDFDFB",
"l	c #F1F2F0",
"m	c #EDEEEE",
"n	c #F5F6F6",
"o	c #F2F0EB",
"p	c #E6E7E6",
"q	c #D9D6CA",
"r	c #FDFCF7",
"s	c #F7F7F7",
"t	c #E7E8E7",
"u	c #F0EFEC",
"v	c #F9F8F8",
"w	c #F1F2F2",
"     .+@#$    ",
"   %&@@@@@*   ",
"  =@-;  >,@&  ",
" '@@)     !@~ ",
" {@~      ]^/ ",
" (@_       :@<",
" [@}       |@1",
" [@2       3@&",
" 4@;       5@@",
" 6@7      8@@@",
"  9@0    a-b@@",
"  c/@-;@d-8e@&",
"    f@@@/g h@i",
"           j@_",
"           k- ",
"          l@0 ",
"          0@m ",
"         n@#  ",
"  o     &@/p  ",
" qr/s@@&@0t   ",
"  uv@--0w     ",
"              "};
