/* XPM */
static xpm_row_t const double_points_xpm[] = {
"14 22 3 1",
" 	c None",
".	c #E5E7E5",
"+	c #E4E6E4",
"              ",
"              ",
"              ",
"              ",
"              ",
"     .+++     ",
"     .+++     ",
"     .+++     ",
"      +++     ",
"              ",
"              ",
"              ",
"              ",
"              ",
"     .+++     ",
"     .+++     ",
"     .+++     ",
"              ",
"              ",
"              ",
"              ",
"              "};
