/* XPM */
static xpm_row_t const explosion2top_xpm[] = {
"22 22 13 1",
" 	c None",
".	c #F83800",
"+	c #F95015",
"@	c #F84815",
"#	c #F83D07",
"$	c #F83C06",
"%	c #F84D1A",
"&	c #FB6E28",
"*	c #FFA044",
"=	c #F8A659",
"-	c #F89951",
";	c #FD8837",
">	c #F8D878",
"       .+@#$%&.       ",
"      ..**=-;*..      ",
"       .**>>*..       ",
"       ..*>>**..      ",
"      ..**>>**.       ",
"       .*>>>**..      ",
"       .**>>*...      ",
"       .**>>**.       ",
"      ..**>>>*..      ",
"      ..**>>**..      ",
"       .**>>*..       ",
"       ..*>>**..      ",
"      ..**>>**.       ",
"       .*>>>**..      ",
"       .**>>*...      ",
"       .**>>**.       ",
"      ..**>>>*..      ",
"      ..**>>**..      ",
"       .**>>*..       ",
"       ..*>>**..      ",
"      ..**>>**.       ",
"       .*>>>**..      "};
