/* XPM */
static char * explosion2left_xpm[] = {
"22 22 19 1",
" 	c None",
".	c #F83800",
"+	c #F83E06",
"@	c #FE9B41",
"#	c #FFA044",
"$	c #F83A02",
"%	c #FC7F32",
"&	c #F8D878",
"*	c #F83E09",
"=	c #F87438",
"-	c #F8AF5F",
";	c #F8B663",
">	c #F8420E",
",	c #F8B05F",
"'	c #F83C05",
")	c #F8783B",
"!	c #FD8837",
"~	c #F8430B",
"{	c #FE913C",
"                      ",
"                      ",
"                      ",
"                      ",
"                      ",
"                      ",
"..    . ..    . ..    ",
"......................",
"+@####.#######.#######",
"$%##&#######&#######&#",
"*=-;&&&&&&&&&&&&&&&&&&",
">=,;&&&&&&&&&&&&&&&&&&",
"')!#&&###&##&&###&##&&",
"~!{.###.###.###.###.##",
"......................",
" . .. . .. .. . .. .. ",
"                      ",
"                      ",
"                      ",
"                      ",
"                      ",
"                      "};
